<?xml version="1.0" encoding="UTF-8"?>
<svg version="1.1" xmlns="http://www.w3.org/2000/svg" width="300" height="300">
<path d="M0 0 C68.97 0 137.94 0 209 0 C209.061875 26.008125 209.12375 52.01625 209.1875 78.8125 C209.21481201 86.99264893 209.24212402 95.17279785 209.27026367 103.60083008 C209.28381348 113.67126465 209.28381348 113.67126465 209.28633118 118.40141296 C209.28910057 121.6706415 209.30023935 124.9397205 209.31672668 128.20890808 C209.49868554 166.01032004 206.10527409 198.68979471 178.25 227.1875 C172.3904748 232.97125149 165.93940635 237.58311249 159 242 C158.19208008 242.51820313 157.38416016 243.03640625 156.55175781 243.5703125 C151.88265392 246.56345923 147.20323553 249.53983495 142.515625 252.50390625 C137.65778887 255.57745413 132.82332305 258.68515558 128 261.8125 C127.319375 262.25094238 126.63875 262.68938477 125.9375 263.14111328 C122.60175288 265.29302573 119.29219651 267.47370112 116.015625 269.71484375 C115.38011719 270.14240967 114.74460937 270.56997559 114.08984375 271.01049805 C112.90179423 271.81088651 111.72140766 272.62282468 110.55078125 273.44848633 C108.13918815 275.05928606 106.46386218 275.99853208 103.53125 276.0078125 C100.12177575 274.65033664 97.23725889 272.71861414 94.25 270.625 C92.9070135 269.70721511 91.5632337 268.79059021 90.21875 267.875 C89.52394531 267.39933594 88.82914062 266.92367188 88.11328125 266.43359375 C84.69202089 264.11270179 81.22356844 261.86656187 77.75 259.625 C77.05221436 259.17366699 76.35442871 258.72233398 75.63549805 258.25732422 C70.96046626 255.24161888 66.25928054 252.26934424 61.54760742 249.3112793 C50.26376253 242.2221558 39.7395721 235.16081993 30 226 C29.39542969 225.47148437 28.79085937 224.94296875 28.16796875 224.3984375 C12.75420246 210.32029031 4.76725294 189.00688002 1 169 C0.82322 168.07677885 0.64643999 167.1535577 0.46430302 166.20236015 C-0.03121509 162.78470536 -0.12291489 159.54352812 -0.12025452 156.09036255 C-0.12111053 155.4212233 -0.12196655 154.75208405 -0.12284851 154.06266785 C-0.1244957 151.82706996 -0.11899315 149.591548 -0.11352539 147.35595703 C-0.11321889 145.72322021 -0.11335283 144.09048326 -0.11389065 142.45774651 C-0.11411604 138.09266419 -0.10832789 133.7276094 -0.10128021 129.36253357 C-0.09557754 125.26374222 -0.09531667 121.1649575 -0.09460449 117.06616211 C-0.089361 105.08577111 -0.07539981 93.1053852 -0.0625 81.125 C-0.041875 54.35375 -0.02125 27.5825 0 0 Z " fill="#00A6E6" transform="translate(45,17)"/>
<path d="M0 0 C68.97 0 137.94 0 209 0 C209.061875 26.008125 209.12375 52.01625 209.1875 78.8125 C209.21481201 86.99264893 209.24212402 95.17279785 209.27026367 103.60083008 C209.28381348 113.67126465 209.28381348 113.67126465 209.28633118 118.40141296 C209.28910057 121.6706415 209.30023935 124.9397205 209.31672668 128.20890808 C209.49868554 166.01032004 206.10527409 198.68979471 178.25 227.1875 C172.3904748 232.97125149 165.93940635 237.58311249 159 242 C158.19208008 242.51820313 157.38416016 243.03640625 156.55175781 243.5703125 C151.88265392 246.56345923 147.20323553 249.53983495 142.515625 252.50390625 C137.65778887 255.57745413 132.82332305 258.68515558 128 261.8125 C127.319375 262.25094238 126.63875 262.68938477 125.9375 263.14111328 C122.60175288 265.29302573 119.29219651 267.47370112 116.015625 269.71484375 C115.38011719 270.14240967 114.74460937 270.56997559 114.08984375 271.01049805 C112.90179423 271.81088651 111.72140766 272.62282468 110.55078125 273.44848633 C108.13918815 275.05928606 106.46386218 275.99853208 103.53125 276.0078125 C100.12177575 274.65033664 97.23725889 272.71861414 94.25 270.625 C92.9070135 269.70721511 91.5632337 268.79059021 90.21875 267.875 C89.52394531 267.39933594 88.82914062 266.92367188 88.11328125 266.43359375 C84.69202089 264.11270179 81.22356844 261.86656187 77.75 259.625 C77.05221436 259.17366699 76.35442871 258.72233398 75.63549805 258.25732422 C70.96046626 255.24161888 66.25928054 252.26934424 61.54760742 249.3112793 C50.26376253 242.2221558 39.7395721 235.16081993 30 226 C29.39542969 225.47148437 28.79085937 224.94296875 28.16796875 224.3984375 C12.75420246 210.32029031 4.76725294 189.00688002 1 169 C0.82322 168.07677885 0.64643999 167.1535577 0.46430302 166.20236015 C-0.03121509 162.78470536 -0.12291489 159.54352812 -0.12025452 156.09036255 C-0.12111053 155.4212233 -0.12196655 154.75208405 -0.12284851 154.06266785 C-0.1244957 151.82706996 -0.11899315 149.591548 -0.11352539 147.35595703 C-0.11321889 145.72322021 -0.11335283 144.09048326 -0.11389065 142.45774651 C-0.11411604 138.09266419 -0.10832789 133.7276094 -0.10128021 129.36253357 C-0.09557754 125.26374222 -0.09531667 121.1649575 -0.09460449 117.06616211 C-0.089361 105.08577111 -0.07539981 93.1053852 -0.0625 81.125 C-0.041875 54.35375 -0.02125 27.5825 0 0 Z M4 4 C3.90937247 24.38561606 3.83582877 44.7710666 3.79275131 65.15683365 C3.7722096 74.62432365 3.74425146 84.0916787 3.69824219 93.55908203 C3.65811535 101.82005245 3.63250639 110.08092505 3.62364602 118.34199023 C3.61847456 122.7078659 3.60649959 127.07346195 3.57707977 131.43924713 C3.34684457 167.04797634 7.67206477 198.41383151 33.71875 224.91015625 C43.10912372 234.00849842 54.4418371 240.62926988 65.58984375 247.31640625 C69.65767576 249.76840744 73.62450453 252.34552666 77.5625 255 C78.15651611 255.39960938 78.75053223 255.79921875 79.36254883 256.2109375 C80.5851923 257.03358946 81.80776593 257.85634522 83.03027344 258.67919922 C86.73451343 261.16307854 90.45653245 263.61899302 94.1875 266.0625 C94.90687744 266.54009766 95.62625488 267.01769531 96.36743164 267.50976562 C97.04410889 267.95126953 97.72078613 268.39277344 98.41796875 268.84765625 C99.31165161 269.4355896 99.31165161 269.4355896 100.22338867 270.03540039 C102.16110851 271.08747282 103.8236592 271.65297399 106 272 C108.02765518 270.99680878 108.02765518 270.99680878 110.0625 269.3125 C114.86659226 265.76042593 119.80724984 262.53912042 124.875 259.375 C134.2562948 253.49138795 143.5553343 247.48902619 152.81884766 241.421875 C154.73021976 240.17586748 156.6494281 238.94386898 158.57421875 237.71875 C181.38505401 222.99831342 196.42921426 201.25200179 203 175 C203.25245389 174.03495639 203.25245389 174.03495639 203.51000786 173.05041695 C205.36354534 165.10089898 205.26772413 157.19513094 205.22705078 149.08544922 C205.22648569 147.49778755 205.22680514 145.91012536 205.22793579 144.32246399 C205.22850648 140.04008835 205.21679846 135.75782616 205.20278788 131.47547674 C205.19023289 126.98985218 205.18910627 122.50422463 205.18673706 118.01858521 C205.18053625 109.53676915 205.16414447 101.05500504 205.14403808 92.57321179 C205.1216354 82.91174417 205.11067469 73.25027399 205.10064721 63.58878684 C205.07977693 43.72582819 205.04422249 23.86291921 205 4 C196.09 4 187.18 4 178 4 C183.28327682 11.4811798 183.28327682 11.4811798 190.23828125 15.06640625 C192.84040557 16.44535905 193.7672693 18.39756851 195 21 C195.99 21.99 195.99 21.99 197 23 C194.375 23.3125 194.375 23.3125 191 23 C188.99651034 21.33752986 186.99665598 19.67067133 185 18 C183.824375 17.835 182.64875 17.67 181.4375 17.5 C177.08852369 16.86742163 175.99352106 15.07229793 173 12 C170.40067298 11.79651836 170.40067298 11.79651836 168 12 C171.94198338 18.0610377 171.94198338 18.0610377 176.3125 23.8125 C178.00941218 26.01220097 178.43762694 27.34404009 179 30 C176.72840311 28.70966095 174.45770375 27.41778598 172.1875 26.125 C171.54490234 25.76019531 170.90230469 25.39539063 170.24023438 25.01953125 C167.43231202 23.41916099 164.69035702 21.79357134 162 20 C159.84725052 20.30840599 159.84725052 20.30840599 158 21 C159.175625 22.0209375 159.175625 22.0209375 160.375 23.0625 C163 26 163 26 163.9375 29.5 C164.72073826 33.23252061 164.72073826 33.23252061 168 35.5 C171.74847838 38.62373198 172.08602653 40.3387353 173 45 C170.97357513 43.04345185 169.14446966 41.21356385 167.5625 38.875 C166.10133665 36.79524961 166.10133665 36.79524961 163.5 36.125 C160.02212262 34.55995518 159.49136671 32.40883818 158 29 C156.16116119 26.71271266 156.16116119 26.71271266 153.375 26.875 C152.59125 26.91625 151.8075 26.9575 151 27 C152.43993546 34.72329019 155.05532446 41.7282249 158 49 C157.34 49 156.68 49 156 49 C155.74863281 48.43410156 155.49726563 47.86820313 155.23828125 47.28515625 C153.82276505 44.67292603 152.15585355 42.66177715 150.1875 40.4375 C149.18783203 39.29087891 149.18783203 39.29087891 148.16796875 38.12109375 C145.93784435 35.93918826 143.72950701 34.49098725 141 33 C141.309375 33.639375 141.61875 34.27875 141.9375 34.9375 C143.10529311 38.3034919 143.36856165 41.27935709 143.55859375 44.81640625 C143.85451265 47.11532408 143.85451265 47.11532408 145.53515625 48.97265625 C147.37459394 51.51843802 147.23083195 52.78762273 147 55.875 C146.84076729 60.3600548 147.55626281 63.13074945 150 67 C144.88766049 63.40754521 142.84210548 59.80701828 141.0625 53.875 C140.21695081 50.9078702 140.21695081 50.9078702 137.9375 49.125 C135.75653843 46.73297764 135.67910541 45.92543357 135.375 42.8125 C135.25125 41.554375 135.1275 40.29625 135 39 C134.34 38.67 133.68 38.34 133 38 C132.67 46.58 132.34 55.16 132 64 C129.03 57.4 126.06 50.8 123 44 C122.67 44 122.34 44 122 44 C122 45.65 122 47.3 122 49 C120.515 49.495 120.515 49.495 119 50 C119.02320313 50.97582031 119.04640625 51.95164063 119.0703125 52.95703125 C119.08835937 54.22933594 119.10640625 55.50164062 119.125 56.8125 C119.14820313 58.07707031 119.17140625 59.34164062 119.1953125 60.64453125 C119 64 119 64 117 67 C116.93941406 66.21753906 116.87882812 65.43507812 116.81640625 64.62890625 C116.73261719 63.61699219 116.64882812 62.60507813 116.5625 61.5625 C116.48128906 60.55316406 116.40007812 59.54382813 116.31640625 58.50390625 C116.26788532 56.06359221 116.26788532 56.06359221 115 55 C114.92773498 53.14712498 114.9161878 51.29166122 114.9375 49.4375 C114.94652344 48.42558594 114.95554687 47.41367188 114.96484375 46.37109375 C114.97644531 45.58863281 114.98804688 44.80617187 115 44 C113.68 43.34 112.36 42.68 111 42 C110.15495567 45.85169407 109.32608365 49.70669874 108.5 53.5625 C108.26152344 54.64853516 108.02304688 55.73457031 107.77734375 56.85351562 C106.60973999 62.34125329 105.67785093 67.38655254 106 73 C105.34 73 104.68 73 104 73 C104.03480469 72.14019531 104.06960937 71.28039062 104.10546875 70.39453125 C104.32442012 60.83365463 104.53963899 49.6570563 98 42 C97.92652344 43.04800781 97.92652344 43.04800781 97.8515625 44.1171875 C97.77679688 45.02726562 97.70203125 45.93734375 97.625 46.875 C97.55539063 47.77992187 97.48578125 48.68484375 97.4140625 49.6171875 C97 52 97 52 95 54 C94.65389528 56.76007563 94.55749203 59.4948682 94.44140625 62.2734375 C93.9412728 65.3627574 92.87719088 66.56660441 91 69 C90.64131841 71.12972821 90.64131841 71.12972821 90.8125 73.25 C90.874375 74.4875 90.93625 75.725 91 77 C90.34 77 89.68 77 89 77 C87.69449235 70.47246176 87.6147865 64.53029223 89 58 C88.67 57.67 88.34 57.34 88 57 C87.73706944 52.96839809 87.70595156 51.44107266 90 48 C89.68493373 44.85778033 89.68493373 44.85778033 89 42 C88.34 42 87.68 42 87 42 C82.71 49.92 78.42 57.84 74 66 C74.55009638 57.9843099 75.13493305 49.988065 76 42 C70.67099034 45.72300675 68.48967994 48.63171457 66.81640625 54.8828125 C65.45938952 58.40196594 63.01483096 59.83718649 60 62 C59.505 62.99 59.505 62.99 59 64 C58.69101166 58.74719815 59.33491781 56.40763593 62 52 C62.5681185 49.44346673 62.99695358 46.89588068 63.375 44.3046875 C64.08689075 41.67959038 65.05928445 40.82563269 67 39 C67.25069913 36.37429296 67.25069913 36.37429296 67 34 C61.93376232 38.23816537 57.19961931 42.67408963 52.5625 47.375 C51.92634766 48.01566406 51.29019531 48.65632813 50.63476562 49.31640625 C49.08749668 50.87530879 47.54263508 52.43651416 46 54 C46.2673999 53.38479492 46.5347998 52.76958984 46.81030273 52.13574219 C48.02254755 49.34186173 49.23006868 46.54596387 50.4375 43.75 C50.85837891 42.78191406 51.27925781 41.81382813 51.71289062 40.81640625 C52.11572266 39.88183594 52.51855469 38.94726562 52.93359375 37.984375 C53.30540771 37.12553711 53.67722168 36.26669922 54.06030273 35.38183594 C54.89737682 33.26011736 55.51149995 31.22413847 56 29 C49.46974959 32.1340369 49.46974959 32.1340369 44.375 37.125 C41.54851621 40.54653301 39.09784704 41.43536749 35 43 C32.66121124 44.56328365 32.66121124 44.56328365 31 46 C33.04906179 40.19432491 35.20837027 37.99302477 40 34 C40.474375 32.824375 40.94875 31.64875 41.4375 30.4375 C43.51755913 25.86136992 45.54115972 25.10322655 50 23 C49.505 21.515 49.505 21.515 49 20 C41.08 23.96 33.16 27.92 25 32 C28.50992684 27.61259144 32.1610402 23.51575566 35.9765625 19.40234375 C37.7452688 17.30243183 38.92391335 15.50508344 40 13 C32.9239658 13.91674709 32.9239658 13.91674709 26.9375 17.5625 C23.46957909 20.4401365 21.51556141 20.61614795 17.1484375 20.76171875 C14.72654898 21.0303282 13.10519711 21.80451476 11 23 C14.33160252 18.41904653 17.01380518 16.29689937 22.15625 14.00390625 C24.27248047 13.00905935 24.27248047 13.00905935 26.0625 10.375 C28.64420146 7.2103337 31.11719716 6.9523856 35 6 C35.33 5.34 35.66 4.68 36 4 C25.44 4 14.88 4 4 4 Z " fill="#FDDC00" transform="translate(45,17)"/>
<path d="M0 0 C3.91524397 2.10820829 6.6730154 4.21360598 9 8 C9.73777149 12.85337912 9.66197648 17.48691089 7.6875 22 C4.5470852 25.72197309 4.5470852 25.72197309 3 27 C2.34 27 1.68 27 1 27 C1 30.3 1 33.6 1 37 C3.22943359 36.98259766 3.22943359 36.98259766 5.50390625 36.96484375 C16.72005241 36.90473881 27.82284411 37.01118368 39 38 C39 39.98 39 41.96 39 44 C35.01669261 44.28846756 31.03313331 44.57314648 27.04931641 44.85449219 C25.03664439 44.99739813 23.02417891 45.14320349 21.01171875 45.2890625 C19.72910156 45.37929687 18.44648438 45.46953125 17.125 45.5625 C15.95195312 45.64628906 14.77890625 45.73007813 13.5703125 45.81640625 C9.70209587 46.01531892 5.87293564 46.01176651 2 46 C2.16892957 55.9364456 2.35874148 65.87225331 2.57505417 75.80778694 C2.67485012 80.42154083 2.76750913 85.03520606 2.84375 89.64941406 C2.91762318 94.10431682 3.01038423 98.55846577 3.11612701 103.01272202 C3.15312687 104.71019105 3.18337543 106.40782142 3.20668793 108.1055336 C3.2405685 110.48796649 3.29866161 112.86868981 3.36230469 115.25048828 C3.36662506 115.94892349 3.37094543 116.6473587 3.37539673 117.36695862 C3.54381668 122.31643118 4.89597423 125.18341652 8 129 C12.79396119 132.19597413 17.40177798 131.82140955 23 131 C34.60320576 126.7277957 45.20851275 120.20463613 51 109 C50.34 109 49.68 109 49 109 C47.66216607 108.68521554 46.32796291 108.35412344 45 108 C45.77085937 107.16855469 46.54171875 106.33710938 47.3359375 105.48046875 C48.3490665 104.38291233 49.36208137 103.28525056 50.375 102.1875 C51.13683594 101.36668945 51.13683594 101.36668945 51.9140625 100.52929688 C54.15216303 98.09977985 56.16379112 95.75431332 58 93 C58.66 93 59.32 93 60 93 C60.99 104.385 60.99 104.385 62 116 C60.35 114.68 58.7 113.36 57 112 C56.29037109 113.57587891 56.29037109 113.57587891 55.56640625 115.18359375 C48.88096531 129.5727197 41.33723469 138.02696908 26.11035156 143.70458984 C23.41593144 144.67657695 20.71904255 145.6415016 18.02026367 146.60131836 C12.07178583 148.79760244 6.96397884 151.80023721 1.671875 155.265625 C-0.51396773 156.68450537 -2.64333452 157.90022278 -5 159 C-5.42667969 158.63648438 -5.85335937 158.27296875 -6.29296875 157.8984375 C-13.91380283 151.77034411 -22.70498198 148.25365536 -31.75512695 144.7512207 C-46.21403236 139.1302413 -56.17133837 132.54168229 -63.0625 118.0625 C-64.5835971 114.58497499 -65 112.90073071 -65 109 C-65.66 109 -66.32 109 -67 109 C-67.12375 109.969375 -67.2475 110.93875 -67.375 111.9375 C-67.58125 112.948125 -67.7875 113.95875 -68 115 C-68.99 115.495 -68.99 115.495 -70 116 C-69.85865273 113.10388456 -69.7120847 110.2081919 -69.5625 107.3125 C-69.52318359 106.49587891 -69.48386719 105.67925781 -69.44335938 104.83789062 C-69.23101997 100.80344189 -68.95552078 96.94252691 -68 93 C-66.90234298 94.09765702 -65.8054267 95.19605927 -64.7109375 96.296875 C-63.37188284 97.62981525 -62.02031941 98.95019188 -60.6640625 100.265625 C-59.84679687 101.06484375 -59.02953125 101.8640625 -58.1875 102.6875 C-57.39730469 103.45449219 -56.60710937 104.22148437 -55.79296875 105.01171875 C-54 107 -54 107 -54 109 C-55.98 108.67 -57.96 108.34 -60 108 C-53.78659826 119.08974234 -44.26600734 126.94905806 -32.0546875 130.578125 C-26.96591278 131.62296848 -21.77997397 131.77873861 -17 129.6875 C-14.01837647 127.17175514 -13.0566272 125.5368564 -12.64559937 121.64009094 C-12.58656831 120.22958953 -12.53800119 118.81862743 -12.49755859 117.4074707 C-12.46800583 116.63650055 -12.43845306 115.8655304 -12.40800476 115.07119751 C-12.31255026 112.52296293 -12.23044711 109.97448104 -12.1484375 107.42578125 C-12.08485612 105.6588397 -12.020443 103.89192789 -11.95523071 102.12504578 C-11.78582899 97.47449734 -11.6277431 92.82363013 -11.47198486 88.17260742 C-11.31105266 83.42667713 -11.13945717 78.68113384 -10.96875 73.93554688 C-10.63537683 64.62404626 -10.313953 55.3121742 -10 46 C-10.64202362 46.00507568 -11.28404724 46.01015137 -11.94552612 46.01538086 C-16.94821696 46.03818568 -21.89174694 45.95015558 -26.8828125 45.5625 C-28.06875 45.47226563 -29.2546875 45.38203125 -30.4765625 45.2890625 C-31.68054688 45.19367188 -32.88453125 45.09828125 -34.125 45 C-35.98898438 44.85691406 -35.98898438 44.85691406 -37.890625 44.7109375 C-40.92736218 44.47734233 -43.96378646 44.24028968 -47 44 C-47 42.02 -47 40.04 -47 38 C-34.79 37.34 -22.58 36.68 -10 36 C-9.74962402 26.83213754 -9.74962402 26.83213754 -15 21 C-16.35698258 16.92905226 -16.52387231 13.25646256 -16 9 C-12.44295878 1.88591755 -7.97117847 -0.97891665 0 0 Z " fill="#F8DA00" transform="translate(154,109)"/>
<path d="M0 0 C68.97 0 137.94 0 209 0 C209.061875 26.008125 209.12375 52.01625 209.1875 78.8125 C209.21481201 86.99264893 209.24212402 95.17279785 209.27026367 103.60083008 C209.28381348 113.67126465 209.28381348 113.67126465 209.28633118 118.40141296 C209.28910057 121.6706415 209.30023935 124.9397205 209.31672668 128.20890808 C209.49868554 166.01032004 206.10527409 198.68979471 178.25 227.1875 C172.3904748 232.97125149 165.93940635 237.58311249 159 242 C158.19208008 242.51820313 157.38416016 243.03640625 156.55175781 243.5703125 C151.88265392 246.56345923 147.20323553 249.53983495 142.515625 252.50390625 C137.65778887 255.57745413 132.82332305 258.68515558 128 261.8125 C127.319375 262.25094238 126.63875 262.68938477 125.9375 263.14111328 C122.60175288 265.29302573 119.29219651 267.47370112 116.015625 269.71484375 C115.38011719 270.14240967 114.74460937 270.56997559 114.08984375 271.01049805 C112.90179423 271.81088651 111.72140766 272.62282468 110.55078125 273.44848633 C108.13918815 275.05928606 106.46386218 275.99853208 103.53125 276.0078125 C100.12177575 274.65033664 97.23725889 272.71861414 94.25 270.625 C92.9070135 269.70721511 91.5632337 268.79059021 90.21875 267.875 C89.52394531 267.39933594 88.82914062 266.92367188 88.11328125 266.43359375 C84.69202089 264.11270179 81.22356844 261.86656187 77.75 259.625 C77.05221436 259.17366699 76.35442871 258.72233398 75.63549805 258.25732422 C70.96046626 255.24161888 66.25928054 252.26934424 61.54760742 249.3112793 C50.26376253 242.2221558 39.7395721 235.16081993 30 226 C29.39542969 225.47148437 28.79085937 224.94296875 28.16796875 224.3984375 C12.75420246 210.32029031 4.76725294 189.00688002 1 169 C0.82322 168.07677885 0.64643999 167.1535577 0.46430302 166.20236015 C-0.03121509 162.78470536 -0.12291489 159.54352812 -0.12025452 156.09036255 C-0.12111053 155.4212233 -0.12196655 154.75208405 -0.12284851 154.06266785 C-0.1244957 151.82706996 -0.11899315 149.591548 -0.11352539 147.35595703 C-0.11321889 145.72322021 -0.11335283 144.09048326 -0.11389065 142.45774651 C-0.11411604 138.09266419 -0.10832789 133.7276094 -0.10128021 129.36253357 C-0.09557754 125.26374222 -0.09531667 121.1649575 -0.09460449 117.06616211 C-0.089361 105.08577111 -0.07539981 93.1053852 -0.0625 81.125 C-0.041875 54.35375 -0.02125 27.5825 0 0 Z M4 3 C3.90616537 23.5159528 3.83583043 44.03186148 3.79275131 64.54798508 C3.77220886 74.07600875 3.74424926 83.60389837 3.69824219 93.13183594 C3.65811767 101.44554406 3.63250692 109.759155 3.62364602 118.07295728 C3.61847418 122.46677782 3.60649666 126.86032056 3.57707977 131.25405121 C3.34788311 166.93232 7.61475432 198.35553172 33.71875 224.91015625 C43.10912372 234.00849842 54.4418371 240.62926988 65.58984375 247.31640625 C69.65767576 249.76840744 73.62450453 252.34552666 77.5625 255 C78.15651611 255.39960938 78.75053223 255.79921875 79.36254883 256.2109375 C80.5851923 257.03358946 81.80776593 257.85634522 83.03027344 258.67919922 C86.73451343 261.16307854 90.45653245 263.61899302 94.1875 266.0625 C94.90687744 266.54009766 95.62625488 267.01769531 96.36743164 267.50976562 C97.04410889 267.95126953 97.72078613 268.39277344 98.41796875 268.84765625 C99.31165161 269.4355896 99.31165161 269.4355896 100.22338867 270.03540039 C102.16110851 271.08747282 103.8236592 271.65297399 106 272 C108.02765518 270.99680878 108.02765518 270.99680878 110.0625 269.3125 C114.86659226 265.76042593 119.80724984 262.53912042 124.875 259.375 C134.2562948 253.49138795 143.5553343 247.48902619 152.81884766 241.421875 C154.73021976 240.17586748 156.6494281 238.94386898 158.57421875 237.71875 C181.38505401 222.99831342 196.42921426 201.25200179 203 175 C203.25245389 174.03495639 203.25245389 174.03495639 203.51000786 173.05041695 C205.36354534 165.10089898 205.26772413 157.19513094 205.22705078 149.08544922 C205.22648569 147.49778755 205.22680514 145.91012536 205.22793579 144.32246399 C205.22850648 140.04008835 205.21679846 135.75782616 205.20278788 131.47547674 C205.19023289 126.98985218 205.18910627 122.50422463 205.18673706 118.01858521 C205.18053625 109.53676915 205.16414447 101.05500504 205.14403808 92.57321179 C205.1216354 82.91174417 205.11067469 73.25027399 205.10064721 63.58878684 C205.07977693 43.72582819 205.04422249 23.86291921 205 4 C196.09 4 187.18 4 178 4 C183.28327682 11.4811798 183.28327682 11.4811798 190.23828125 15.06640625 C192.84040557 16.44535905 193.7672693 18.39756851 195 21 C195.99 21.99 195.99 21.99 197 23 C194.125 23.125 194.125 23.125 191 23 C190.01 22.01 190.01 22.01 189 21 C190.98 21.66 192.96 22.32 195 23 C192.15019716 17.35519822 189.77605625 14.45666884 183.9296875 12.0078125 C180.77984279 10.3627519 179.14987887 7.78219619 177 5 C176.34 5 175.68 5 175 5 C175 4.34 175 3.68 175 3 C174.29486047 3.00607553 173.58972094 3.01215105 172.86321354 3.01841068 C155.73020907 3.16568457 138.59716786 3.30742756 121.46406651 3.4429636 C113.17873724 3.50864127 104.89343139 3.57621237 96.6081543 3.64819336 C89.38933134 3.71090444 82.17048976 3.77011143 74.95160335 3.82505554 C71.1268984 3.85428983 67.30222641 3.88531606 63.47757149 3.92053413 C59.88177364 3.9535896 56.28596991 3.98197951 52.69010544 4.00670624 C50.73291486 4.02140397 48.77576404 4.04112473 46.81861877 4.06095886 C45.664505 4.06799835 44.51039124 4.07503784 43.32130432 4.08229065 C41.80725935 4.09473485 41.80725935 4.09473485 40.2626276 4.10743046 C38 4 38 4 37 3 C34.55169574 2.91156207 32.13179401 2.88471248 29.68359375 2.90234375 C28.95253922 2.9037587 28.22148468 2.90517365 27.46827698 2.90663147 C25.12464368 2.91224592 22.78110461 2.92480078 20.4375 2.9375 C18.85221492 2.94251314 17.26692834 2.94707637 15.68164062 2.95117188 C11.7877239 2.96222003 7.89387795 2.97949428 4 3 Z " fill="#1B1916" transform="translate(45,17)"/>
<path d="M0 0 C4.58978038 -0.0992963 9.17892788 -0.17166748 13.76953125 -0.21972656 C15.32921244 -0.23977222 16.88881913 -0.26701657 18.44824219 -0.30175781 C20.69745314 -0.35059126 22.9456659 -0.37303815 25.1953125 -0.390625 C26.23161301 -0.42159271 26.23161301 -0.42159271 27.28884888 -0.45318604 C32.33059857 -0.45549316 35.10299355 0.87595351 39 4 C40.87109375 6.11328125 40.87109375 6.11328125 42.4375 8.3125 C53.15236253 22.52940634 68.73434403 32.26435068 86.3203125 35.63671875 C105.17039104 37.49771376 121.98746329 35.79461643 139 27 C139.99 29.97 139.99 29.97 141 33 C140.01 32.67 139.02 32.34 138 32 C138.66 32.99 139.32 33.98 140 35 C140.32779919 37.25310077 140.43937528 39.47325135 140.55859375 41.74609375 C140.84604859 44.10662631 140.84604859 44.10662631 142.53125 45.98046875 C144.37093625 48.51003735 144.25913843 49.79592995 144.0625 52.875 C143.92156811 57.01717202 144.3691987 60.12684692 146 64 C141.15884594 61.98715343 139.29519359 58.5552118 137 54 C136.835 53.113125 136.67 52.22625 136.5 51.3125 C136.16952199 48.71299232 136.16952199 48.71299232 133.5 46.6875 C131 44 131 44 130 36 C129.67 44.91 129.34 53.82 129 63 C126.94358996 60.94358996 126.20459625 59.50084948 125.0546875 56.8671875 C124.70019531 56.06152344 124.34570312 55.25585938 123.98046875 54.42578125 C123.43326172 53.16314453 123.43326172 53.16314453 122.875 51.875 C122.50246094 51.02550781 122.12992187 50.17601562 121.74609375 49.30078125 C120.82653895 47.20231004 119.91136807 45.10203658 119 43 C118.67 43.99 118.34 44.98 118 46 C117.01 46.495 117.01 46.495 116 47 C116.02320313 47.95261719 116.04640625 48.90523437 116.0703125 49.88671875 C116.08835937 51.14097656 116.10640625 52.39523438 116.125 53.6875 C116.14820313 54.92886719 116.17140625 56.17023438 116.1953125 57.44921875 C116.01032021 60.81237857 115.45767895 62.9985587 114 66 C111.41331224 63.41331224 111.65770694 62.03108979 111.4375 58.4375 C111.50202788 54.90583192 111.50202788 54.90583192 110 52 C109.92773498 50.14712498 109.9161878 48.29166122 109.9375 46.4375 C109.94652344 45.42558594 109.95554687 44.41367188 109.96484375 43.37109375 C109.97644531 42.58863281 109.98804688 41.80617187 110 41 C109.34 40.67 108.68 40.34 108 40 C105.26522582 49.89173641 103.5860593 59.87621725 102 70 C101.34 70 100.68 70 100 70 C99.94392578 68.71029297 99.94392578 68.71029297 99.88671875 67.39453125 C99.18437145 53.81744257 99.18437145 53.81744257 95 41 C94.814375 42.918125 94.814375 42.918125 94.625 44.875 C94.25 48.75 94.25 48.75 92 51 C91.65389528 53.76007563 91.55749203 56.4948682 91.44140625 59.2734375 C90.94060666 62.36687214 89.90676938 63.57948964 88 66 C87.43672257 68.11818257 87.43672257 68.11818257 87.3125 70.25 C87.209375 71.4875 87.10625 72.725 87 74 C86.34 74 85.68 74 85 74 C82.37466742 67.43666856 82.54223171 61.8723362 84 55 C83.67 54.67 83.34 54.34 83 54 C82.73706944 49.96839809 82.70595156 48.44107266 85 45 C85.16699232 41.87478167 85.16699232 41.87478167 85 39 C84.34 39 83.68 39 83 39 C82.78472656 39.78632812 82.56945312 40.57265625 82.34765625 41.3828125 C80.55203915 46.20235288 78.03941344 50.45074771 75.4375 54.875 C74.67663086 56.19371094 74.67663086 56.19371094 73.90039062 57.5390625 C71.11736284 62.31208485 71.11736284 62.31208485 70 64 C69.67 64 69.34 64 69 64 C68.68267362 56.22550376 69.88144701 48.67007765 71 41 C67.42653639 43.55412877 65.52863423 45.1161089 64.5625 49.4375 C63.59377317 52.83917869 62.76516518 54.59851563 59.9375 56.75 C56.89363425 59.08147164 56.03242681 60.38650617 55 64 C54.67 64 54.34 64 54 64 C53.68204078 57.93522236 53.63146638 54.18235942 57 49 C57.57079492 46.44383145 57.99692586 43.89607068 58.375 41.3046875 C59 39 59 39 60.5625 37.4453125 C62.47012528 35.86706365 62.47012528 35.86706365 62 32 C55.4 38.6 48.8 45.2 42 52 C41.67 51.34 41.34 50.68 41 50 C41.80444336 47.75341797 41.80444336 47.75341797 43.08984375 44.9921875 C43.54423828 44.00605469 43.99863281 43.01992188 44.46679688 42.00390625 C44.95212891 40.97136719 45.43746094 39.93882813 45.9375 38.875 C46.41896484 37.83472656 46.90042969 36.79445312 47.39648438 35.72265625 C48.59067598 33.14509418 49.79210372 30.57116119 51 28 C50.37996094 28.31453125 49.75992188 28.6290625 49.12109375 28.953125 C47 30 47 30 45.0625 30.75 C42.56384724 32.264335 41.20418934 34.28090708 39.41796875 36.55078125 C37.0783307 38.94198157 34.07187907 39.79319036 31 41 C28.15399323 43.05787515 28.15399323 43.05787515 26 45 C26.97790056 38.69797418 28.29095855 36.30871296 33.33984375 32.50390625 C35.3418333 30.90600109 35.3418333 30.90600109 36.5 27.375 C38.51907424 22.83208296 40.58825455 22.08101201 45 20 C45 19.34 45 18.68 45 18 C44.28344238 18.36875244 43.56688477 18.73750488 42.82861328 19.11743164 C39.59823183 20.77404423 36.36176594 22.41839925 33.125 24.0625 C31.99707031 24.64322266 30.86914062 25.22394531 29.70703125 25.82226562 C28.63066406 26.36689453 27.55429688 26.91152344 26.4453125 27.47265625 C25.45031738 27.98062744 24.45532227 28.48859863 23.43017578 29.01196289 C22.62821777 29.33801514 21.82625977 29.66406738 21 30 C20.34 29.67 19.68 29.34 19 29 C24.28 23.39 29.56 17.78 35 12 C29.85957483 12 26.98725962 12.15977905 23.0625 15.5 C19.45979757 18.44098157 17.59393944 18.50479307 13.125 18.75390625 C10.24164711 19.08782396 8.3045255 20.29019076 6 22 C7.36164816 16.85599584 10.6884072 13.8743952 15 11 C15.68707031 10.83886719 16.37414062 10.67773438 17.08203125 10.51171875 C19.88550404 9.76374536 20.82357443 7.80224984 22.36328125 5.47265625 C24 4 24 4 31 2 C20.77 1.67 10.54 1.34 0 1 C0 0.67 0 0.34 0 0 Z " fill="#1D201F" transform="translate(49,20)"/>
<path d="M0 0 C4.32731478 1.8926791 6.56142841 4.25018405 8.9375 8.3125 C10.97243661 15.37492706 10.49219819 19.90839884 7.265625 26.3359375 C5.74747767 28.3320201 4.29224258 29.04650414 2 30 C2 32.31 2 34.62 2 37 C7.25087844 37.16723026 12.50190094 37.32782815 17.75317383 37.48217773 C19.54099032 37.53567402 21.32875275 37.59100904 23.11645508 37.64819336 C25.68038266 37.72989235 28.24442953 37.80505945 30.80859375 37.87890625 C32.01484657 37.91945885 32.01484657 37.91945885 33.24546814 37.96083069 C35.16298422 38.01285627 37.08181503 38.01187441 39 38 C39.33 37.67 39.66 37.34 40 37 C42.9375 36.75 42.9375 36.75 46 37 C48.31282587 40.46923881 48.42478586 41.92205575 48 46 C46.8125 47.875 46.8125 47.875 45 49 C42.375 49.25 42.375 49.25 40 49 C39.67 48.67 39.34 48.34 39 48 C31.15525292 47.42314917 23.18854338 48.35540445 15.375 49 C14.18003906 49.09539062 12.98507813 49.19078125 11.75390625 49.2890625 C8.8356352 49.52252418 5.91770424 49.75957554 3 50 C3.24035077 57.82483523 3.48364294 65.64957331 3.73049068 73.47420597 C3.84507578 77.10914591 3.95872105 80.74410972 4.07006836 84.37915039 C4.17795581 87.90002877 4.28850782 91.42081507 4.40075874 94.94155693 C4.46287334 96.91020653 4.52236557 98.87893832 4.58177185 100.84767151 C4.66149527 103.32150814 4.7514711 105.79503911 4.85250854 108.26809692 C4.95620072 110.89176846 5.03034791 113.50670254 5.08035278 116.131073 C5.12612808 117.4838223 5.17296142 118.83653629 5.22094727 120.18920898 C5.250923 121.39939194 5.28089874 122.60957489 5.31178284 123.85643005 C5.73992181 127.17683326 5.73992181 127.17683326 8.41929626 129.39247131 C12.41818454 131.88339173 15.42978595 131.68730351 20 131 C30.48715374 128.41265842 39.65823119 122.79664706 46 114 C46.33 113.34 46.66 112.68 47 112 C45.02 112 43.04 112 41 112 C43.15649628 108.04642349 45.63575832 105.17867019 48.875 102.0625 C52.49703766 98.51989299 55.8625265 94.9741331 59 91 C63.86290653 99.42113082 62.12488613 111.61966371 62 121 C60.35 119.68 58.7 118.36 57 117 C56.38125 118.25103516 56.38125 118.25103516 55.75 119.52734375 C46.82300822 136.92302192 35.56189029 144.93090597 17.05615234 150.98461914 C8.96507196 153.70629489 1.73276005 157.51948864 -4 164 C-6.82386318 162.71587256 -8.8009614 161.35790529 -11 159.1875 C-16.92863867 153.98248532 -24.55941737 151.61748441 -32.0625 149.5625 C-45.18443232 145.7623884 -56.25789471 137.3522525 -62.8828125 125.375 C-64.34052282 122.27609134 -65.27315956 119.34346603 -66 116 C-66.66 116 -67.32 116 -68 116 C-68.268125 116.61875 -68.53625 117.2375 -68.8125 117.875 C-70 120 -70 120 -73 122 C-72.7257478 117.07513067 -72.43999836 112.15119809 -72.13671875 107.22802734 C-72.01485394 105.24206621 -71.89772323 103.25581588 -71.78125 101.26953125 C-71.7090625 100.21121094 -71.636875 99.15289062 -71.5625 98.0625 C-71.50191406 97.12535156 -71.44132812 96.18820313 -71.37890625 95.22265625 C-71 93 -71 93 -69 91 C-56.33029613 104.44874715 -56.33029613 104.44874715 -51 112 C-53.31 112 -55.62 112 -58 112 C-50.53717669 121.1886012 -41.40692889 129.44345781 -29.28515625 131.44921875 C-23.6120561 131.6966171 -20.4139396 130.84009045 -16 127 C-15.04385008 123.9889637 -15.04674891 121.03275128 -15.01171875 117.890625 C-14.97845993 116.98291855 -14.94520111 116.0752121 -14.91093445 115.13999939 C-14.8089291 112.17680924 -14.74794919 109.21430339 -14.6875 106.25 C-14.6251985 104.21647014 -14.56024281 102.18301992 -14.49267578 100.1496582 C-14.36134269 96.05593482 -14.24642337 91.96229681 -14.14697266 87.86767578 C-14.01751519 82.54470236 -13.85155207 77.22369561 -13.66796875 71.90234375 C-13.41897027 64.60218079 -13.19723693 57.30177547 -13 50 C-18.33238695 49.64996901 -23.66580716 49.32097162 -29 49 C-29.86592773 48.94666504 -30.73185547 48.89333008 -31.62402344 48.83837891 C-34.29064622 48.67663293 -36.957679 48.52474693 -39.625 48.375 C-40.88521973 48.2968103 -40.88521973 48.2968103 -42.17089844 48.21704102 C-46.64725572 47.97559828 -50.56664888 48.19953382 -55 49 C-56.875 47.9375 -56.875 47.9375 -58 46 C-58.42478586 41.92205575 -58.31282587 40.46923881 -56 37 C-52.9375 36.75 -52.9375 36.75 -50 37 C-49.505 37.495 -49.505 37.495 -49 38 C-46.26057426 38.10091059 -43.55173772 38.13866203 -40.8125 38.125 C-39.67844727 38.13080078 -39.67844727 38.13080078 -38.52148438 38.13671875 C-34.21851693 38.1292548 -30.24914547 37.72435097 -26 37 C-23.54245859 36.93421998 -21.08331222 36.91430838 -18.625 36.9375 C-16.75714844 36.95103516 -16.75714844 36.95103516 -14.8515625 36.96484375 C-13.44003906 36.98224609 -13.44003906 36.98224609 -12 37 C-12 34.36 -12 31.72 -12 29 C-12.99 28.67 -13.98 28.34 -15 28 C-18.60609248 23.15753296 -19.6570986 19.39366929 -19.3828125 13.359375 C-18.57813061 8.39990703 -15.62781254 5.67161342 -12.3125 2.125 C-8.02394263 -0.62615001 -4.96183017 -1.06140019 0 0 Z M-15.875 8.1875 C-17.96530301 13.41325752 -17.71252781 18.16778563 -15.6875 23.375 C-13.98539546 26.22703418 -13.98539546 26.22703418 -11 29 C-11 31.97 -11 34.94 -11 38 C-23.21 38.66 -35.42 39.32 -48 40 C-48 41.98 -48 43.96 -48 46 C-43.70880631 46.33961036 -39.41698339 46.6705324 -35.125 47 C-33.92101562 47.09539062 -32.71703125 47.19078125 -31.4765625 47.2890625 C-30.290625 47.37929687 -29.1046875 47.46953125 -27.8828125 47.5625 C-26.80402832 47.64628906 -25.72524414 47.73007813 -24.61376953 47.81640625 C-20.07248467 48.04712144 -15.54595267 48.0359392 -11 48 C-11.27641449 58.21493202 -11.57883241 68.42873176 -11.91439342 78.64190197 C-12.06939687 83.38445499 -12.21545802 88.12693146 -12.34106445 92.87036133 C-12.4626324 97.44882877 -12.6077135 102.02600329 -12.76906776 106.60323524 C-12.8264754 108.34885501 -12.87543185 110.09477402 -12.91576195 111.84087181 C-12.97375104 114.2887188 -13.0618436 116.73377395 -13.15698242 119.18041992 C-13.17209618 120.26151787 -13.17209618 120.26151787 -13.18751526 121.36445618 C-13.37313605 125.24607845 -13.91395226 126.89628203 -16.4276886 129.92622375 C-21.14575633 133.72989106 -25.09524644 133.55965384 -31 133 C-42.64769461 130.37257464 -51.8192771 123.34129963 -58.85546875 113.8828125 C-60 112 -60 112 -60 110 C-58.35 110.33 -56.7 110.66 -55 111 C-56.44575901 107.66134002 -58.26714538 105.51928597 -60.875 103 C-61.55304688 102.34 -62.23109375 101.68 -62.9296875 101 C-63.61289063 100.34 -64.29609375 99.68 -65 99 C-66.33564213 97.66897947 -67.66965284 96.33631284 -69 95 C-69.33772739 97.70784994 -69.67030687 100.41616996 -70 103.125 C-70.09539062 103.88554687 -70.19078125 104.64609375 -70.2890625 105.4296875 C-70.79830188 109.64909952 -71.10888068 113.74004344 -71 118 C-69.4166747 116.7511573 -69.4166747 116.7511573 -68 115 C-68 113.68 -68 112.36 -68 111 C-67.34 111 -66.68 111 -66 111 C-65.88914062 111.86882812 -65.77828125 112.73765625 -65.6640625 113.6328125 C-63.77456321 123.21368536 -57.89942967 132.89795425 -49.83081055 138.50830078 C-43.7730549 142.16344683 -37.65565863 144.95773983 -31.0625 147.5 C-11.14166838 155.41761719 -11.14166838 155.41761719 -6 161 C-3.69370667 159.92553864 -1.62514604 158.75009736 0.49609375 157.3359375 C8.08904759 152.27396827 15.76590514 148.92684718 24.40014648 145.96630859 C38.71562013 140.91633424 47.034812 132.76561989 53.51196289 119.33447266 C54.3509164 117.56082794 55.17683595 115.78102766 56 114 C57.65 115.32 59.3 116.64 61 118 C60.01 106.615 60.01 106.615 59 95 C56.88761952 94.76802848 56.88761952 94.76802848 55.484375 96.46875 C51.4622649 101.1793294 47.63958767 105.98723457 44 111 C45.98 110.67 47.96 110.34 50 110 C44.83587554 121.10286759 35.99162607 127.34840757 24.875 132.1171875 C19.89333589 133.64688327 15.13377235 133.83769639 10 133 C6.2844543 130.91929441 4.52724963 128.91619044 3 125 C2.76395142 122.46058255 2.63083211 120.02007903 2.58935547 117.47753906 C2.56955627 116.72593002 2.54975708 115.97432098 2.52935791 115.19993591 C2.46631311 112.72195931 2.4166882 110.24390607 2.3671875 107.765625 C2.32603229 106.04496294 2.28403891 104.32432073 2.24124146 102.60369873 C2.13096597 98.07965191 2.03207503 93.55542513 1.93554688 89.03106689 C1.83499508 84.41247583 1.72368667 79.79414542 1.61328125 75.17578125 C1.39832142 66.11741029 1.19538691 57.0588128 1 48 C1.61996857 47.97265274 2.23993713 47.94530548 2.87869263 47.91712952 C5.73427174 47.79067248 8.58979164 47.66292183 11.4453125 47.53515625 C12.42024658 47.49217407 13.39518066 47.44919189 14.3996582 47.40490723 C22.27575352 47.05109183 30.13674777 46.57565865 38 46 C38 44.02 38 42.04 38 40 C25.3280546 38.87894322 12.71325972 38.9007638 0 39 C0 35.7 0 32.4 0 29 C1.32 28.34 2.64 27.68 4 27 C6.94584271 24.49057843 7.84558539 22.40517295 8.2734375 18.51171875 C8.59673781 12.03233874 8.59673781 12.03233874 5.75 6.4375 C2.09992426 3.2022056 0.478863 2.16431811 -4.375 1.625 C-9.6151217 2.16708156 -12.48600311 4.2336703 -15.875 8.1875 Z " fill="#14170E" transform="translate(155,107)"/>
<path d="M0 0 C1.0828125 0.2165625 1.0828125 0.2165625 2.1875 0.4375 C2.1875 1.0975 2.1875 1.7575 2.1875 2.4375 C2.765 2.664375 3.3425 2.89125 3.9375 3.125 C6.1875 4.4375 6.1875 4.4375 7.9375 6.8125 C10.1470003 9.39025035 11.2644426 10.09481788 14.25 11.4375 C17.92145917 13.1162713 19.49906855 14.66335911 21.1875 18.4375 C21.6825 19.4275 21.6825 19.4275 22.1875 20.4375 C16.4375 18.6875 16.4375 18.6875 14.1875 16.4375 C12.14798644 16.16375377 12.14798644 16.16375377 9.875 16.125 C5.08796113 15.72608009 3.39994961 14.01708671 0.1875 10.4375 C-1.1325 10.4375 -2.4525 10.4375 -3.8125 10.4375 C-3.10222656 11.31792969 -2.39195312 12.19835938 -1.66015625 13.10546875 C-0.73129706 14.27827076 0.1970622 15.45146884 1.125 16.625 C1.82786133 17.4922168 1.82786133 17.4922168 2.54492188 18.37695312 C5.13520211 21.67536752 6.80566111 24.12353299 7.1875 28.4375 C2.29847366 26.69795879 -1.85380998 23.99422616 -6.171875 21.18359375 C-9.70037503 18.92617904 -9.70037503 18.92617904 -13.8125 18.4375 C-13.02875 19.118125 -12.245 19.79875 -11.4375 20.5 C-8.8125 23.4375 -8.8125 23.4375 -7.875 26.9375 C-7.09849596 30.66953446 -7.09849596 30.66953446 -3.8125 32.875 C0.1396745 36.25081572 0.3364263 38.41616516 1.1875 43.4375 C-1.99688005 42.30022141 -2.86472687 41.3566326 -4.75 38.4375 C-7.00094393 35.16339974 -8.13783107 34.59792177 -11.8125 33.4375 C-13.8125 31.4375 -13.8125 31.4375 -14.5625 28.9375 C-15.62148682 26.11114778 -15.62148682 26.11114778 -18.890625 25.28125 C-19.85484375 25.0028125 -20.8190625 24.724375 -21.8125 24.4375 C-21.60044922 25.03288574 -21.38839844 25.62827148 -21.16992188 26.24169922 C-20.21420752 28.93082736 -19.26329852 31.62163005 -18.3125 34.3125 C-17.97863281 35.24964844 -17.64476562 36.18679687 -17.30078125 37.15234375 C-16.82705078 38.49619141 -16.82705078 38.49619141 -16.34375 39.8671875 C-16.05048828 40.69460449 -15.75722656 41.52202148 -15.45507812 42.37451172 C-14.8125 44.4375 -14.8125 44.4375 -14.8125 46.4375 C-15.4725 46.4375 -16.1325 46.4375 -16.8125 46.4375 C-18.14514423 44.94893934 -19.40469479 43.39446355 -20.625 41.8125 C-22.95884044 38.79724629 -25.29792821 35.87121869 -27.875 33.0625 C-29.8125 30.4375 -29.8125 30.4375 -29.77734375 28.53125 C-28.34528561 25.42362586 -26.11633183 24.2312839 -23.3125 22.3125 C-15.95284869 17.07491628 -10.00667907 10.90479975 -5.0625 3.3125 C-2.8125 0.4375 -2.8125 0.4375 0 0 Z " fill="#242219" transform="translate(217.8125,19.5625)"/>
<path d="M0 0 C0.99 1.32 1.98 2.64 3 4 C2.67 4.66 2.34 5.32 2 6 C1.67 6 1.34 6 1 6 C1.33 6.66 1.66 7.32 2 8 C2.23299504 10.23502647 2.38093672 12.46842524 2.5234375 14.7109375 C2.84677873 17.1011451 2.84677873 17.1011451 4.53515625 18.984375 C6.37140233 21.51104961 6.25887829 22.80000331 6.0625 25.875 C5.92156811 30.01717202 6.3691987 33.12684692 8 37 C3.15884594 34.98715343 1.29519359 31.5552118 -1 27 C-1.2475 25.6696875 -1.2475 25.6696875 -1.5 24.3125 C-1.83047801 21.71299232 -1.83047801 21.71299232 -4.5 19.6875 C-7 17 -7 17 -8 9 C-8.33 17.91 -8.66 26.82 -9 36 C-11.05641004 33.94358996 -11.79540375 32.50084948 -12.9453125 29.8671875 C-13.29980469 29.06152344 -13.65429688 28.25585938 -14.01953125 27.42578125 C-14.56673828 26.16314453 -14.56673828 26.16314453 -15.125 24.875 C-15.49753906 24.02550781 -15.87007812 23.17601563 -16.25390625 22.30078125 C-17.17346105 20.20231004 -18.08863193 18.10203658 -19 16 C-19.33 16.99 -19.66 17.98 -20 19 C-20.66 19.33 -21.32 19.66 -22 20 C-21.97679687 20.95261719 -21.95359375 21.90523437 -21.9296875 22.88671875 C-21.90261719 24.76810547 -21.90261719 24.76810547 -21.875 26.6875 C-21.85179687 27.92886719 -21.82859375 29.17023438 -21.8046875 30.44921875 C-21.98967979 33.81237857 -22.54232105 35.9985587 -24 39 C-26.58668776 36.41331224 -26.34229306 35.03108979 -26.5625 31.4375 C-26.49797212 27.90583192 -26.49797212 27.90583192 -28 25 C-28.07252184 22.21697443 -27.99624685 19.44719465 -27.9375 16.6640625 C-27.87191426 13.89443987 -27.87191426 13.89443987 -29 11 C-28.071875 11.061875 -27.14375 11.12375 -26.1875 11.1875 C-23.04805428 11.36376855 -23.04805428 11.36376855 -21.65625 9.609375 C-19.42369986 7.44001024 -17.28240647 6.94852844 -14.3125 6.0625 C-9.2178008 4.4591864 -4.69699635 2.52915188 0 0 Z " fill="#2D2B1E" transform="translate(187,47)"/>
<path d="M0 0 C8.91 0 17.82 0 27 0 C27.08613959 32.110924 26.84010416 64.21748061 26.55461788 96.3269186 C26.49275759 103.29255335 26.43294357 110.2582053 26.37324238 117.22385883 C26.25099084 131.48259165 26.12635578 145.74130297 26 160 C25.67 160 25.34 160 25 160 C24.505 91.195 24.505 91.195 24 21 C22.02 20.01 20.04 19.02 18 18 C16.05114695 16.39915642 15.14325067 15.33847134 14.16015625 13.015625 C12.46022874 10.06221559 10.25082754 9.5926751 7.16796875 8.41796875 C5 7 5 7 0 0 Z " fill="#00ACED" transform="translate(223,21)"/>
<path d="M0 0 C4.32731478 1.8926791 6.56142841 4.25018405 8.9375 8.3125 C10.97243661 15.37492706 10.49219819 19.90839884 7.265625 26.3359375 C5.74747767 28.3320201 4.29224258 29.04650414 2 30 C2 32.31 2 34.62 2 37 C7.25087844 37.16723026 12.50190094 37.32782815 17.75317383 37.48217773 C19.54099032 37.53567402 21.32875275 37.59100904 23.11645508 37.64819336 C25.68038266 37.72989235 28.24442953 37.80505945 30.80859375 37.87890625 C32.01484657 37.91945885 32.01484657 37.91945885 33.24546814 37.96083069 C35.16298422 38.01285627 37.08181503 38.01187441 39 38 C39.33 37.67 39.66 37.34 40 37 C42.9375 36.75 42.9375 36.75 46 37 C48.31282587 40.46923881 48.42478586 41.92205575 48 46 C46.8125 47.875 46.8125 47.875 45 49 C42.375 49.25 42.375 49.25 40 49 C39.67 48.67 39.34 48.34 39 48 C31.03530265 47.41002242 22.93465089 48.35973999 15 49 C18.3407848 45.6592152 22.29511222 46.0178002 26.8671875 45.90234375 C28.20316035 45.90889264 29.53911709 45.92067202 30.875 45.9375 C31.56335938 45.94201172 32.25171875 45.94652344 32.9609375 45.95117188 C34.64066335 45.96283664 36.32034375 45.98076729 38 46 C38 44.02 38 42.04 38 40 C37.18402344 40.01160156 36.36804688 40.02320313 35.52734375 40.03515625 C23.66547593 40.1255078 11.84571735 39.58047566 0 39 C-0.07950964 37.39533389 -0.1363813 35.78953462 -0.18359375 34.18359375 C-0.23471313 32.84252563 -0.23471313 32.84252563 -0.28686523 31.47436523 C0 29 0 29 1.28881836 27.33618164 C2.81159835 26.15976475 4.40393928 25.07489803 6 24 C7.54020319 19.37939044 7.51574193 14.82536624 7 10 C4.97979262 6.46463709 2.91561075 4.23062052 -1 3 C-5.28261351 2.52415405 -7.47440024 2.72232465 -11.3125 4.75 C-14.38751887 7.32443441 -15.742975 9.16410711 -16.30078125 13.1484375 C-16.32737281 18.20083337 -15.80960581 21.62950207 -13 26 C-12.47535156 26.45375 -11.95070312 26.9075 -11.41015625 27.375 C-9.53744228 29.5330305 -9.65828661 30.80939896 -9.75 33.625 C-9.76546875 34.42164063 -9.7809375 35.21828125 -9.796875 36.0390625 C-10 38 -10 38 -11 39 C-12.56172745 39.08685603 -14.12729344 39.10702219 -15.69140625 39.09765625 C-16.63564453 39.09443359 -17.57988281 39.09121094 -18.55273438 39.08789062 C-19.54595703 39.07951172 -20.53917969 39.07113281 -21.5625 39.0625 C-22.55958984 39.05798828 -23.55667969 39.05347656 -24.58398438 39.04882812 C-27.05604849 39.03700007 -29.52799518 39.02051849 -32 39 C-32 38.67 -32 38.34 -32 38 C-27.48184719 37.11722245 -23.22487306 36.89410497 -18.625 36.9375 C-16.75714844 36.95103516 -16.75714844 36.95103516 -14.8515625 36.96484375 C-13.44003906 36.98224609 -13.44003906 36.98224609 -12 37 C-12 34.36 -12 31.72 -12 29 C-12.99 28.67 -13.98 28.34 -15 28 C-18.60609248 23.15753296 -19.6570986 19.39366929 -19.3828125 13.359375 C-18.57813061 8.39990703 -15.62781254 5.67161342 -12.3125 2.125 C-8.02394263 -0.62615001 -4.96183017 -1.06140019 0 0 Z " fill="#151E20" transform="translate(155,107)"/>
<path d="M0 0 C5.0261109 0.53676912 8.62239409 2.94418501 12.8125 5.5625 C13.50537109 5.98724609 14.19824219 6.41199219 14.91210938 6.84960938 C16.61216951 7.89309456 18.30665476 8.94565296 20 10 C20.66 9.34 21.32 8.68 22 8 C23.98 10.31 25.96 12.62 28 15 C27.67 15.66 27.34 16.32 27 17 C20.73 13.04 14.46 9.08 8 5 C8 7.62676615 8.17661008 9.47101666 9 12 C10.49434386 13.1694865 11.99063009 14.33686088 13.5078125 15.4765625 C15.87571066 17.89405015 16.50427678 20.70196278 17.359375 23.9140625 C17.97468652 26.27184262 17.97468652 26.27184262 20 29 C15.07710011 28.56562648 12.51249175 26.356381 9 23 C8.649375 22.278125 8.29875 21.55625 7.9375 20.8125 C6.58700869 18.20155013 4.67611656 18.04433817 2 17 C-0.19271383 14.5636513 -1.6238899 11.96392944 -3 9 C-3.66 9 -4.32 9 -5 9 C-4.72212646 9.74685059 -4.44425293 10.49370117 -4.15795898 11.26318359 C-2.90993518 14.63093346 -1.67358705 18.00285167 -0.4375 21.375 C0.00013672 22.550625 0.43777344 23.72625 0.88867188 24.9375 C1.50258789 26.61972656 1.50258789 26.61972656 2.12890625 28.3359375 C2.51119385 29.37282715 2.89348145 30.4097168 3.28735352 31.47802734 C4 34 4 34 3 36 C1.35 34.02 -0.3 32.04 -2 30 C-1.34 29.67 -0.68 29.34 0 29 C-0.21205078 28.44014404 -0.42410156 27.88028809 -0.64257812 27.3034668 C-1.60014633 24.76670026 -2.55014699 22.22716489 -3.5 19.6875 C-4.00080078 18.36588867 -4.00080078 18.36588867 -4.51171875 17.01757812 C-4.82753906 16.17001953 -5.14335937 15.32246094 -5.46875 14.44921875 C-5.90864258 13.27879028 -5.90864258 13.27879028 -6.35742188 12.0847168 C-7 10 -7 10 -7 7 C-2.51658163 6.63647959 -2.51658163 6.63647959 -0.3125 8.1875 C1 10 1 10 1.8125 12.5 C2.80945943 15.26870287 2.80945943 15.26870287 5.8125 16.375 C10.05721403 18.53897186 11.44879144 21.02311606 14 25 C14 22.15333338 12.93959821 19.63982353 12 17 C11.195625 16.360625 10.39125 15.72125 9.5625 15.0625 C6.4480005 12.55570772 5.95572019 10.59933473 4.7578125 6.90234375 C3.72878905 4.31917662 2.0814111 2.79431992 0 1 C0 0.67 0 0.34 0 0 Z " fill="#1C1C1A" transform="translate(203,37)"/>
<path d="M0 0 C-2.68092691 2.68092691 -4.39167363 2.38670257 -8.125 2.625 C-9.22070312 2.69976562 -10.31640625 2.77453125 -11.4453125 2.8515625 C-12.28835937 2.90054688 -13.13140625 2.94953125 -14 3 C-13.75927249 10.79028199 -13.51594628 18.5804784 -13.26950932 26.37058163 C-13.15509482 29.98977478 -13.04149937 33.60898937 -12.92993164 37.22827148 C-12.25624361 59.62743752 -12.25624361 59.62743752 -11 82 C-11.66 82 -12.32 82 -13 82 C-15.53762009 78.14905022 -15.34873272 74.10174323 -15.4140625 69.65234375 C-15.43347397 68.81956406 -15.45288544 67.98678436 -15.47288513 67.12876892 C-15.53343206 64.39845077 -15.57962554 61.66810917 -15.625 58.9375 C-15.66291143 57.05419074 -15.70124528 55.17088995 -15.73999023 53.28759766 C-16.07826118 35.85898749 -16.10863057 18.43102848 -16 1 C-10.57948029 0.27688445 -5.46773928 -0.0976382 0 0 Z " fill="#16160C" transform="translate(172,154)"/>
<path d="M0 0 C3.0625 -0.25 3.0625 -0.25 6 0 C6.33 0.33 6.66 0.66 7 1 C9.85877909 1.23701239 12.69883297 1.42219182 15.5625 1.5625 C16.36880859 1.60568359 17.17511719 1.64886719 18.00585938 1.69335938 C20.00368805 1.79975262 22.0018207 1.90040888 24 2 C24 2.33 24 2.66 24 3 C18.72 3 13.44 3 8 3 C8 4.98 8 6.96 8 9 C9.07894531 8.97679687 10.15789062 8.95359375 11.26953125 8.9296875 C22.65117681 8.76566469 33.70934532 9.59805618 45 11 C44.67 14.3 44.34 17.6 44 21 C43.67 21 43.34 21 43 21 C43 18.36 43 15.72 43 13 C37.66761305 12.64996901 32.33419284 12.32097162 27 12 C26.13407227 11.94666504 25.26814453 11.89333008 24.37597656 11.83837891 C21.70935378 11.67663293 19.042321 11.52474693 16.375 11.375 C15.11478027 11.2968103 15.11478027 11.2968103 13.82910156 11.21704102 C9.35274428 10.97559828 5.43335112 11.19953382 1 12 C-0.875 10.9375 -0.875 10.9375 -2 9 C-2.42478586 4.92205575 -2.31282587 3.46923881 0 0 Z " fill="#1B1C1B" transform="translate(99,144)"/>
<path d="M0 0 C3.78424087 0.83068702 5.24512395 2.51680577 7.5625 5.5625 C8.1875 8.5625 8.1875 8.5625 7.5625 11.5625 C5.5 14.5 5.5 14.5 2.5625 16.5625 C-1.125 16.5625 -1.125 16.5625 -4.4375 15.5625 C-6.89146331 11.88155504 -7.13443286 8.83874235 -6.4375 4.5625 C-4.4947794 1.68439541 -3.37223771 0.7782087 0 0 Z " fill="#02A4DF" transform="translate(150.4375,114.4375)"/>
<path d="M0 0 C1.010625 0.0825 2.02125 0.165 3.0625 0.25 C5.37532587 3.71923881 5.48728586 5.17205575 5.0625 9.25 C3.875 11.125 3.875 11.125 2.0625 12.25 C-0.5625 12.5 -0.5625 12.5 -2.9375 12.25 C-3.2675 11.92 -3.5975 11.59 -3.9375 11.25 C-11.90219735 10.66002242 -20.00284911 11.60973999 -27.9375 12.25 C-24.5967152 8.9092152 -20.64238778 9.2678002 -16.0703125 9.15234375 C-14.73433965 9.15889264 -13.39838291 9.17067202 -12.0625 9.1875 C-11.02996094 9.19426758 -11.02996094 9.19426758 -9.9765625 9.20117188 C-8.29683665 9.21283664 -6.61715625 9.23076729 -4.9375 9.25 C-4.9375 7.27 -4.9375 5.29 -4.9375 3.25 C-5.96230469 3.26160156 -6.98710937 3.27320313 -8.04296875 3.28515625 C-9.403644 3.29454022 -10.76432124 3.30363977 -12.125 3.3125 C-12.79853516 3.32087891 -13.47207031 3.32925781 -14.16601562 3.33789062 C-17.89184131 3.35606538 -21.3163042 3.14299392 -24.9375 2.25 C-24.9375 1.92 -24.9375 1.59 -24.9375 1.25 C-24.30658447 1.25523682 -23.67566895 1.26047363 -23.02563477 1.26586914 C-20.18376653 1.28657826 -17.34191412 1.29964066 -14.5 1.3125 C-13.50677734 1.32087891 -12.51355469 1.32925781 -11.49023438 1.33789062 C-10.54599609 1.34111328 -9.60175781 1.34433594 -8.62890625 1.34765625 C-7.75435791 1.35289307 -6.87980957 1.35812988 -5.97875977 1.36352539 C-3.28184106 1.21353529 -2.96628276 0.2524496 0 0 Z " fill="#131A21" transform="translate(197.9375,143.75)"/>
<path d="M0 0 C5.30160964 1.0395313 7.33158736 1.98549197 10.61328125 6.48828125 C12.28607248 8.3118593 13.87354032 9.05775024 16.125 10.0625 C19.78083672 11.70797077 21.3229884 13.25138584 23 17 C23.33 17.66 23.66 18.32 24 19 C18.33414044 17.36319613 18.33414044 17.36319613 16.5625 15.4375 C14.94419668 13.65778416 14.94419668 13.65778416 11.6875 13.6875 C7.30196895 12.86985862 6.26519645 11.56210246 3.421875 8.3671875 C1.46377744 6.48440139 -0.3341234 6.15681627 -3 6 C-1.125 1.125 -1.125 1.125 0 0 Z " fill="#F4DD00" transform="translate(216,21)"/>
<path d="M0 0 C1.98 0 3.96 0 6 0 C7.17353189 3.52059568 7.20146402 6.306493 7 10 C6.34 10.66 5.68 11.32 5 12 C4.82658733 13.76539781 4.7330925 15.53919159 4.6875 17.3125 C4.42670549 21.13414267 4.23479759 23.46877819 1.4375 26.1875 C0.2309375 27.0846875 0.2309375 27.0846875 -1 28 C-0.98259766 26.78763672 -0.98259766 26.78763672 -0.96484375 25.55078125 C-0.95582031 24.48214844 -0.94679687 23.41351563 -0.9375 22.3125 C-0.92589844 21.25675781 -0.91429687 20.20101562 -0.90234375 19.11328125 C-0.89704347 16.0427083 -0.89704347 16.0427083 -1.62890625 13.29296875 C-2 11 -2 11 0 8 C0.24055468 5.94290404 0.24055468 5.94290404 0.125 3.8125 C0.08375 2.554375 0.0425 1.29625 0 0 Z " fill="#EDD400" transform="translate(135,58)"/>
<path d="M0 0 C1.98 0.99 3.96 1.98 6 3 C5.8125 6.25 5.8125 6.25 5 10 C4.21625 10.61875 3.4325 11.2375 2.625 11.875 C-0.28397394 14.22988367 -0.4622501 14.97475508 -1.375 18.4375 C-2.85754906 23.69144579 -5.37353818 25.29395629 -10 28 C-9.60219815 25.13582668 -9.3137738 23.37652856 -7.4375 21.125 C-5.66878403 18.96106933 -5.66878403 18.96106933 -6.125 15.625 C-5.96157351 10.88563178 -4.05285953 9.49961946 -1 6 C-0.126062 2.77566873 -0.126062 2.77566873 0 0 Z " fill="#F4DE00" transform="translate(114,50)"/>
<path d="M0 0 C5.75 1.75 5.75 1.75 8 4 C8.2475 5.093125 8.495 6.18625 8.75 7.3125 C9.70317799 11.20092018 9.70317799 11.20092018 13 13.4375 C16.9521745 16.81331572 17.1489263 18.97866516 18 24 C14.81561995 22.86272141 13.94777313 21.9191326 12.0625 19 C9.81155607 15.72589974 8.67466893 15.16042177 5 14 C3 12 3 12 2.1875 9.5625 C0.71039204 6.37505652 -0.91275861 5.54362069 -4 4 C-2.68 2.68 -1.36 1.36 0 0 Z " fill="#F3DD00" transform="translate(201,39)"/>
<path d="M0 0 C2.875 -0.125 2.875 -0.125 6 0 C8 2 8 2 8.1875 5.0625 C8 8 8 8 7 9 C6.96794496 12.49857882 7.06869743 15.98698987 7.16015625 19.484375 C7.00692192 22.84805548 6.45944189 25.00098999 5 28 C2.41331224 25.41331224 2.65770694 24.03108979 2.4375 20.4375 C2.50202788 16.90583192 2.50202788 16.90583192 1 14 C0.92747816 11.21697443 1.00375315 8.44719465 1.0625 5.6640625 C1.12808574 2.89443987 1.12808574 2.89443987 0 0 Z " fill="#F0DA00" transform="translate(158,58)"/>
<path d="M0 0 C1.9375 0.8125 1.9375 0.8125 4 2 C4.33 2.99 4.66 3.98 5 5 C3.16329961 7.89633523 1.88897792 9.67248182 -1.375 10.875 C-4.24391029 12.10453298 -4.95155032 13.02179567 -6.8125 15.4375 C-10.03625134 19.47771055 -13.09610656 20.56265192 -18 22 C-16.8351758 18.85497466 -15.70414415 17.76578078 -13 15.625 C-9.79275153 13.28377628 -9.79275153 13.28377628 -9.0625 9.9375 C-7.50854944 5.64128374 -4.97691197 5.09691722 -1 3 C-0.67 2.01 -0.34 1.02 0 0 Z " fill="#F5DF00" transform="translate(96,38)"/>
<path d="M0 0 C1.5625 1.25 1.5625 1.25 3 3 C2.85245408 5.36073466 2.18968395 6.69873726 0.9375 8.6875 C-1.61957363 10.41971117 -4.01266811 10.36394356 -7.02734375 10.62109375 C-9.25725194 10.88676519 -9.25725194 10.88676519 -11.4375 13 C-15.05719563 15.8251283 -18.51706579 15.80466518 -23 16 C-20.77774076 13.52132624 -19.02791226 12.01337463 -16 10.5625 C-12.8651316 9.20235315 -12.8651316 9.20235315 -11.0625 6.4375 C-8.37382948 3.25998029 -5.97280679 2.95641645 -2 2 C-1.34 1.34 -0.68 0.68 0 0 Z " fill="#F1DB00" transform="translate(83,21)"/>
<path d="M0 0 C1.07980476 3.21750519 0.97733906 4.82122732 -0.43359375 7.890625 C-0.75263672 8.59960938 -1.07167969 9.30859375 -1.40039062 10.0390625 C-1.74263672 10.76867188 -2.08488281 11.49828125 -2.4375 12.25 C-2.77587891 12.99507812 -3.11425781 13.74015625 -3.46289062 14.5078125 C-4.29826304 16.34327865 -5.14777967 18.17229555 -6 20 C-4.83061319 20.11388397 -4.83061319 20.11388397 -3.72485352 18.80664062 C-3.19819092 18.26201172 -2.67152832 17.71738281 -2.12890625 17.15625 C-1.26749023 16.27646484 -1.26749023 16.27646484 -0.38867188 15.37890625 C0.82688007 14.1282528 2.04043116 12.87565148 3.25195312 11.62109375 C3.82751953 11.03457031 4.40308594 10.44804688 4.99609375 9.84375 C5.52388428 9.29912109 6.0516748 8.75449219 6.59545898 8.19335938 C8 7 8 7 10 7 C10 6.34 10 5.68 10 5 C11.98 5.66 13.96 6.32 16 7 C15.67 7.66 15.34 8.32 15 9 C14.34 8.67 13.68 8.34 13 8 C12.7525 8.886875 12.505 9.77375 12.25 10.6875 C11 14 11 14 8.9375 16.5 C6.70282303 19.38345415 6.33369774 21.41274931 6 25 C5.67 25 5.34 25 5 25 C4.50332594 18.66740576 4.50332594 18.66740576 7 15.3125 C7.66 14.549375 8.32 13.78625 9 13 C9 11.68 9 10.36 9 9 C2.4 15.6 -4.2 22.2 -11 29 C-11.33 28.34 -11.66 27.68 -12 27 C-11.22729492 24.83276367 -11.22729492 24.83276367 -9.98046875 22.16796875 C-9.53509766 21.20439453 -9.08972656 20.24082031 -8.63085938 19.24804688 C-8.15455078 18.23806641 -7.67824219 17.22808594 -7.1875 16.1875 C-6.2634357 14.20223564 -5.34022966 12.21657152 -4.41796875 10.23046875 C-4.00313232 9.34770264 -3.5882959 8.46493652 -3.16088867 7.55541992 C-2.02878694 5.06336759 -0.99579208 2.54919334 0 0 Z " fill="#13161E" transform="translate(102,43)"/>
<path d="M0 0 C2.97 0 5.94 0 9 0 C8.48351265 7.78808563 7.55123466 15.34925042 6 23 C5.34 23 4.68 23 4 23 C3.32667007 19.91808296 2.66251141 16.8342592 2 13.75 C1.80921875 12.87730469 1.6184375 12.00460938 1.421875 11.10546875 C1.24140625 10.26113281 1.0609375 9.41679688 0.875 8.546875 C0.70742187 7.77182617 0.53984375 6.99677734 0.3671875 6.19824219 C0 4 0 4 0 0 Z " fill="#EED500" transform="translate(145,59)"/>
<path d="M0 0 C2.97 0.99 5.94 1.98 9 3 C1.70159453 17.78132118 1.70159453 17.78132118 -2 24 C-2.33 24 -2.66 24 -3 24 C-2.55217307 15.82126607 -1.81655599 7.99284636 0 0 Z " fill="#F4DB00" transform="translate(123,54)"/>
<path d="M0 0 C1.50922336 3.01844672 1.33407047 6.15334785 1.5234375 9.4921875 C1.81590699 12.07132963 1.81590699 12.07132963 3.52734375 13.9609375 C5.48599731 16.67291936 5.30546173 18.44707151 5.1875 21.75 C5.16042969 22.73484375 5.13335937 23.7196875 5.10546875 24.734375 C5.07066406 25.48203125 5.03585938 26.2296875 5 27 C2.84544219 24.34329592 1.95801589 22.8404604 1.0625 19.4375 C0.37694553 15.93792017 0.37694553 15.93792017 -2.0625 14.625 C-4.52529129 12.55943311 -4.34831498 11.629056 -4.625 8.5 C-4.65851563 7.7265625 -4.69203125 6.953125 -4.7265625 6.15625 C-4.874657 3.70526184 -4.874657 3.70526184 -7 1 C-3.375 -1.125 -3.375 -1.125 0 0 Z " fill="#F5E000" transform="translate(186,52)"/>
<path d="M0 0 C1.17171756 3.28989086 2.33651088 6.58219102 3.5 9.875 C3.83386719 10.81214844 4.16773438 11.74929687 4.51171875 12.71484375 C4.98544922 14.05869141 4.98544922 14.05869141 5.46875 15.4296875 C5.76201172 16.25710449 6.05527344 17.08452148 6.35742188 17.93701172 C7 20 7 20 7 22 C6.34 22 5.68 22 5 22 C3.66735577 20.51143934 2.40780521 18.95696355 1.1875 17.375 C-1.15514716 14.3624155 -3.49818331 11.38174874 -6 8.5 C-8 6 -8 6 -8 4 C-2.58823529 0 -2.58823529 0 0 0 Z " fill="#F6DC00" transform="translate(196,44)"/>
<path d="M0 0 C3.465 1.98 3.465 1.98 7 4 C5.6415798 7.04332765 4.11536976 9.12309151 1.7421875 11.453125 C1.11699219 12.071875 0.49179688 12.690625 -0.15234375 13.328125 C-0.80332031 13.96234375 -1.45429687 14.5965625 -2.125 15.25 C-2.78371094 15.8996875 -3.44242187 16.549375 -4.12109375 17.21875 C-5.74296643 18.81711727 -7.3693281 20.41061897 -9 22 C-9 18.91330819 -8.52561637 17.56646663 -7.28515625 14.8046875 C-6.92873047 14.00675781 -6.57230469 13.20882812 -6.20507812 12.38671875 C-5.82802734 11.55785156 -5.45097656 10.72898437 -5.0625 9.875 C-4.50272461 8.62009766 -4.50272461 8.62009766 -3.93164062 7.33984375 C-1.14584867 1.14584867 -1.14584867 1.14584867 0 0 Z " fill="#F5DD00" transform="translate(104,44)"/>
<path d="M0 0 C3.84725418 3.68088643 7.11385725 7.56185919 10.3125 11.8125 C10.9940918 12.7087207 10.9940918 12.7087207 11.68945312 13.62304688 C12.79633917 15.07947588 13.89865264 16.53937817 15 18 C11.6998249 18 10.7476985 17.47229985 7.98828125 15.8125 C7.23095703 15.36132812 6.47363281 14.91015625 5.69335938 14.4453125 C4.90767578 13.96835937 4.12199219 13.49140625 3.3125 13 C2.51521484 12.52304687 1.71792969 12.04609375 0.89648438 11.5546875 C-1.07259831 10.37559607 -3.03782548 9.19053997 -5 8 C-3.58208437 5.06553114 -2.01667393 2.56667591 0 0 Z " fill="#F5DF01" transform="translate(210,29)"/>
<path d="M0 0 C5.33333333 5.33333333 10.66666667 10.66666667 16 16 C15.01 16.33 14.02 16.66 13 17 C11.5385774 15.56564079 10.08096951 14.12739414 8.625 12.6875 C7.81289062 11.88699219 7.00078125 11.08648437 6.1640625 10.26171875 C4 8 4 8 2 5 C1.66280953 7.56204544 1.33012847 10.12454318 1 12.6875 C0.90460938 13.40873047 0.80921875 14.12996094 0.7109375 14.87304688 C0.23316265 18.60992871 -0.11919794 22.22291531 0 26 C0.66 24.02 1.32 22.04 2 20 C2.66 20 3.32 20 4 20 C4 21.65 4 23.3 4 25 C3.34 25 2.68 25 2 25 C1.731875 25.61875 1.46375 26.2375 1.1875 26.875 C0 29 0 29 -3 31 C-1.43333333 2.86666667 -1.43333333 2.86666667 0 0 Z " fill="#121D1B" transform="translate(85,198)"/>
<path d="M0 0 C4.42117715 1.35091524 6.443343 3.1650145 9 7 C10.82951769 11.42133442 10.7688505 16.72930162 9.24609375 21.2265625 C7.38698332 25.23640853 6.19223772 27.25617002 2 29 C2 31.31 2 33.62 2 36 C2.56847656 35.98839844 3.13695312 35.97679687 3.72265625 35.96484375 C8.60670484 35.90776806 13.18503965 36.18043228 18 37 C18 37.33 18 37.66 18 38 C12.06 38 6.12 38 0 38 C-0.72541118 28.93236031 -0.72541118 28.93236031 1.30078125 26.328125 C2.81922561 25.153958 4.40792581 24.07221323 6 23 C7.54008287 18.37975139 7.51646506 13.82505715 7 9 C4.92112507 5.43621441 2.39410482 3.30314256 -1 1 C-0.67 0.67 -0.34 0.34 0 0 Z " fill="#1F1F15" transform="translate(155,108)"/>
<path d="M0 0 C0.66 0 1.32 0 2 0 C4.1875 2.3125 4.1875 2.3125 6 5 C5 8 5 8 3.46533203 9.05908203 C2.81935059 9.37216309 2.17336914 9.68524414 1.5078125 10.0078125 C0.45013672 10.52794922 0.45013672 10.52794922 -0.62890625 11.05859375 C-1.37011719 11.41050781 -2.11132812 11.76242188 -2.875 12.125 C-3.60847656 12.48464844 -4.34195313 12.84429687 -5.09765625 13.21484375 C-8.05010958 14.65073635 -10.8799782 15.95999273 -14 17 C-14 16.34 -14 15.68 -14 15 C-13.34 15 -12.68 15 -12 15 C-11.74089844 14.4121875 -11.48179688 13.824375 -11.21484375 13.21875 C-9.91540207 10.84549317 -8.52161971 9.3537907 -6.5625 7.5 C-4.56077596 5.56887619 -2.85248362 3.8016159 -1.1875 1.5625 C-0.795625 1.046875 -0.40375 0.53125 0 0 Z " fill="#F4DC00" transform="translate(88,29)"/>
<path d="M0 0 C1.30195313 0.00322266 2.60390625 0.00644531 3.9453125 0.00976562 C5.32552149 0.01812159 6.70572982 0.02658654 8.0859375 0.03515625 C9.47395676 0.04017124 10.86197772 0.04473415 12.25 0.04882812 C15.65368882 0.06064649 19.05729189 0.07712191 22.4609375 0.09765625 C22.1309375 1.08765625 21.8009375 2.07765625 21.4609375 3.09765625 C14.2009375 2.76765625 6.9409375 2.43765625 -0.5390625 2.09765625 C-0.8690625 3.08765625 -1.1990625 4.07765625 -1.5390625 5.09765625 C-1.5390625 4.10765625 -1.5390625 3.11765625 -1.5390625 2.09765625 C-3.5190625 2.09765625 -5.4990625 2.09765625 -7.5390625 2.09765625 C-7.2090625 2.75765625 -6.8790625 3.41765625 -6.5390625 4.09765625 C-6.28046115 8.14907744 -6.23464696 9.64103294 -8.5390625 13.09765625 C-8.56238834 15.64869693 -8.56238834 15.64869693 -8.1640625 18.41015625 C-7.71651277 22.3444306 -7.5390625 26.13687391 -7.5390625 30.09765625 C-7.2090625 30.75765625 -6.8790625 31.41765625 -6.5390625 32.09765625 C-6.4990705 34.09725637 -6.49559451 36.09812867 -6.5390625 38.09765625 C-7.1990625 38.09765625 -7.8590625 38.09765625 -8.5390625 38.09765625 C-11.16439508 31.53432481 -10.99683079 25.96999245 -9.5390625 19.09765625 C-9.8690625 18.76765625 -10.1990625 18.43765625 -10.5390625 18.09765625 C-10.80199306 14.06605434 -10.83311094 12.53872891 -8.5390625 9.09765625 C-8.29850782 7.04056029 -8.29850782 7.04056029 -8.4140625 4.91015625 C-8.4553125 3.65203125 -8.4965625 2.39390625 -8.5390625 1.09765625 C-5.66887809 -0.33743596 -3.20362527 -0.01392881 0 0 Z " fill="#32301C" transform="translate(142.5390625,55.90234375)"/>
<path d="M0 0 C1.98346235 1.65112691 2.91288703 2.5451698 3.40625 5.12109375 C3.4371875 5.88550781 3.468125 6.64992188 3.5 7.4375 C3.61841852 10.35355617 3.71968091 11.63651719 5.52734375 13.98046875 C7.37200126 16.51014496 7.25930956 17.79325028 7.0625 20.875 C6.92156811 25.01717202 7.3691987 28.12684692 9 32 C4.15884594 29.98715343 2.29519359 26.5552118 0 22 C-0.165 21.113125 -0.33 20.22625 -0.5 19.3125 C-0.83385279 16.69888926 -0.83385279 16.69888926 -3.5625 14.625 C-6 12 -6 12 -6.3125 8.1875 C-6.209375 7.135625 -6.10625 6.08375 -6 5 C-5.34 4.67 -4.68 4.34 -4 4 C-3.98582031 4.59167969 -3.97164062 5.18335938 -3.95703125 5.79296875 C-3.59621813 11.77076457 -2.47722052 13.85038098 2 18 C2.97180952 20.33136121 3.46413579 22.51553868 4 25 C4.08167446 23.58430936 4.13949698 22.16723195 4.1875 20.75 C4.22230469 19.96109375 4.25710937 19.1721875 4.29296875 18.359375 C4.19242309 15.91586642 4.19242309 15.91586642 2.53125 14.09375 C0.48893526 11.3011972 0.498561 9.17352241 0.3125 5.75 C0.21388672 4.13351563 0.21388672 4.13351563 0.11328125 2.484375 C0.05720703 1.25460938 0.05720703 1.25460938 0 0 Z " fill="#282920" transform="translate(186,52)"/>
<path d="M0 0 C0 6.6 0 13.2 0 20 C-2.57992865 16.56009513 -4.10494075 13.84209652 -5.75 9.9375 C-6.19859375 8.89464844 -6.6471875 7.85179687 -7.109375 6.77734375 C-8 4 -8 4 -7 1 C-4 0 -4 0 0 0 Z " fill="#F5DF00" transform="translate(176,55)"/>
<path d="M0 0 C0.33 0 0.66 0 1 0 C1.66 14.52 2.32 29.04 3 44 C2.34 44 1.68 44 1 44 C-1.02987153 40.6326357 -1.2460712 38.06168692 -1.23046875 34.16015625 C-1.22853516 33.01353516 -1.22660156 31.86691406 -1.22460938 30.68554688 C-1.21236328 29.48994141 -1.20011719 28.29433594 -1.1875 27.0625 C-1.18685547 25.90169922 -1.18621094 24.74089844 -1.18554688 23.54492188 C-1.14604681 15.65807529 -0.70925082 7.85399384 0 0 Z " fill="#212B19" transform="translate(158,192)"/>
<path d="M0 0 C0.66 0.33 1.32 0.66 2 1 C1.98839844 1.78246094 1.97679687 2.56492188 1.96484375 3.37109375 C1.95582031 4.38300781 1.94679687 5.39492187 1.9375 6.4375 C1.92589844 7.44683594 1.91429687 8.45617187 1.90234375 9.49609375 C1.71387324 11.94021067 1.71387324 11.94021067 3 13 C3.23363881 14.84891946 3.41303635 16.70488031 3.5625 18.5625 C3.64628906 19.57441406 3.73007813 20.58632812 3.81640625 21.62890625 C3.90728516 22.80259766 3.90728516 22.80259766 4 24 C6.49118953 20.2632157 6.2065226 18.25548181 6.125 13.8125 C6.10695312 12.54019531 6.08890625 11.26789063 6.0703125 9.95703125 C6.04710937 8.98121094 6.02390625 8.00539063 6 7 C6.66 6.67 7.32 6.34 8 6 C7.979375 6.94875 7.95875 7.8975 7.9375 8.875 C7.77448174 11.90666283 7.77448174 11.90666283 9 14 C9.35294118 20.47058824 9.35294118 20.47058824 7 24 C6.75944532 26.05709596 6.75944532 26.05709596 6.875 28.1875 C6.91625 29.445625 6.9575 30.70375 7 32 C3.08350875 28.77325518 2.4076824 26.41864712 1.875 21.4375 C1.34974167 16.40927486 1.34974167 16.40927486 -1 12 C-0.9765625 9.08203125 -0.9765625 9.08203125 -0.625 5.8125 C-0.51414063 4.72582031 -0.40328125 3.63914063 -0.2890625 2.51953125 C-0.19367188 1.68808594 -0.09828125 0.85664062 0 0 Z " fill="#28231B" transform="translate(158,60)"/>
<path d="M0 0 C8.91 0 17.82 0 27 0 C26.67 6.27 26.34 12.54 26 19 C25.67 19 25.34 19 25 19 C25 13.39 25 7.78 25 2 C18.4 2.33 11.8 2.66 5 3 C5.66 4.32 6.32 5.64 7 7 C4 6 4 6 0 0 Z " fill="#00AFF1" transform="translate(223,21)"/>
<path d="M0 0 C5.0261109 0.53676912 8.62239409 2.94418501 12.8125 5.5625 C13.50537109 5.98724609 14.19824219 6.41199219 14.91210938 6.84960938 C16.61216951 7.89309456 18.30665476 8.94565296 20 10 C20.66 9.34 21.32 8.68 22 8 C23.98 10.31 25.96 12.62 28 15 C27.67 15.66 27.34 16.32 27 17 C20.73 13.04 14.46 9.08 8 5 C8 5.66 8 6.32 8 7 C7.67 7.99 7.34 8.98 7 10 C6.38125 8.88625 6.38125 8.88625 5.75 7.75 C4.06284975 5.0987639 2.24904507 3.17149179 0 1 C0 0.67 0 0.34 0 0 Z " fill="#1B1F1F" transform="translate(203,37)"/>
<path d="M0 0 C3.78424087 0.83068702 5.24512395 2.51680577 7.5625 5.5625 C8.1875 8.5625 8.1875 8.5625 7.5625 11.5625 C5.5 14.5 5.5 14.5 2.5625 16.5625 C-1.125 16.5625 -1.125 16.5625 -4.4375 15.5625 C-6.89146331 11.88155504 -7.13443286 8.83874235 -6.4375 4.5625 C-4.4947794 1.68439541 -3.37223771 0.7782087 0 0 Z M-4.25 3.6875 C-5.98948782 6.43405972 -5.83519128 8.38096974 -5.4375 11.5625 C-4.37404948 13.54279682 -4.37404948 13.54279682 -2.4375 14.5625 C0.41730169 14.99072025 1.90742892 14.96909584 4.375 13.4375 C6.11448782 10.69094028 5.96019128 8.74403026 5.5625 5.5625 C4.49904948 3.58220318 4.49904948 3.58220318 2.5625 2.5625 C-0.29230169 2.13427975 -1.78242892 2.15590416 -4.25 3.6875 Z " fill="#2E270B" transform="translate(150.4375,114.4375)"/>
<path d="M0 0 C9.17909828 0.96372633 19.78228106 6.37823087 27 12 C28.2734375 14.18359375 28.2734375 14.18359375 29 16 C29.66 16 30.32 16 31 16 C31 16.66 31 17.32 31 18 C28.17613682 16.71587256 26.1990386 15.35790529 24 13.1875 C16.87484048 6.93200663 6.98808418 4.44587247 -2 2 C-1.34 1.34 -0.68 0.68 0 0 Z " fill="#071112" transform="translate(120,253)"/>
<path d="M0 0 C2.9156354 3.88751387 3.67570438 5.78176911 4.6875 10.375 C4.93886719 11.47585937 5.19023437 12.57671875 5.44921875 13.7109375 C5.97983197 16.87956394 6.10167325 19.79487199 6 23 C5.71125 22.38125 5.4225 21.7625 5.125 21.125 C4.06279958 18.86674235 4.06279958 18.86674235 2 17 C1.875 14.375 1.875 14.375 2 12 C0.02 12.99 0.02 12.99 -2 14 C-1.34 9.38 -0.68 4.76 0 0 Z " fill="#0A648C" transform="translate(143,59)"/>
<path d="M0 0 C1.07980476 3.21750519 0.97733906 4.82122732 -0.43359375 7.890625 C-0.75263672 8.59960938 -1.07167969 9.30859375 -1.40039062 10.0390625 C-1.74263672 10.76867188 -2.08488281 11.49828125 -2.4375 12.25 C-2.77587891 12.99507812 -3.11425781 13.74015625 -3.46289062 14.5078125 C-4.29826304 16.34327865 -5.14777967 18.17229555 -6 20 C-5.67 20 -5.34 20 -5 20 C-4.01 20 -3.02 20 -2 20 C-4.97 22.97 -7.94 25.94 -11 29 C-11.33 28.34 -11.66 27.68 -12 27 C-11.22729492 24.83276367 -11.22729492 24.83276367 -9.98046875 22.16796875 C-9.53509766 21.20439453 -9.08972656 20.24082031 -8.63085938 19.24804688 C-8.15455078 18.23806641 -7.67824219 17.22808594 -7.1875 16.1875 C-6.2634357 14.20223564 -5.34022966 12.21657152 -4.41796875 10.23046875 C-4.00313232 9.34770264 -3.5882959 8.46493652 -3.16088867 7.55541992 C-2.02878694 5.06336759 -0.99579208 2.54919334 0 0 Z " fill="#112332" transform="translate(102,43)"/>
<path d="M0 0 C0.66 0.66 1.32 1.32 2 2 C-0.31 2.66 -2.62 3.32 -5 4 C-3.59755204 8.38637979 -2.19264028 12.69429488 -0.25 16.875 C1 20 1 20 0 23 C-1.98 18.71 -3.96 14.42 -6 10 C-6.66 10.99 -7.32 11.98 -8 13 C-8.33 9.7 -8.66 6.4 -9 3 C-6.03 2.01 -3.06 1.02 0 0 Z " fill="#1D2021" transform="translate(174,53)"/>
<path d="M0 0 C1.9375 0.6875 1.9375 0.6875 4 2 C4.875 4.5 4.875 4.5 5 7 C4.34 7.66 3.68 8.32 3 9 C0.375 8.625 0.375 8.625 -2 8 C-2.6875 5.6875 -2.6875 5.6875 -3 3 C-1.5625 1.1875 -1.5625 1.1875 0 0 Z " fill="#EBD701" transform="translate(101,145)"/>
<path d="M0 0 C3.53571429 0.53571429 3.53571429 0.53571429 5 2 C5.04080783 3.99958364 5.04254356 6.00045254 5 8 C2.625 8.625 2.625 8.625 0 9 C-2 7 -2 7 -2.25 4.5 C-2 2 -2 2 0 0 Z " fill="#F8E000" transform="translate(196,145)"/>
<path d="M0 0 C2.65990217 1.32995108 2.69764192 2.41653328 3.65625 5.19140625 C3.95660156 6.05443359 4.25695312 6.91746094 4.56640625 7.80664062 C4.87449219 8.71607422 5.18257812 9.62550781 5.5 10.5625 C5.80808594 11.44486328 6.11617187 12.32722656 6.43359375 13.23632812 C8.22780684 18.44570648 9.7478691 23.63461907 11 29 C6.125 25.375 6.125 25.375 5 22 C5.66 22 6.32 22 7 22 C6.78794922 21.44014404 6.57589844 20.88028809 6.35742188 20.3034668 C5.39985367 17.76670026 4.44985301 15.22716489 3.5 12.6875 C3.16613281 11.80642578 2.83226562 10.92535156 2.48828125 10.01757812 C2.17246094 9.17001953 1.85664063 8.32246094 1.53125 7.44921875 C1.23798828 6.66893311 0.94472656 5.88864746 0.64257812 5.0847168 C0 3 0 3 0 0 Z " fill="#0F1C2F" transform="translate(196,44)"/>
<path d="M0 0 C0.66 0.33 1.32 0.66 2 1 C1.34 1.66 0.68 2.32 0 3 C-0.226875 3.9075 -0.45375 4.815 -0.6875 5.75 C-2.45377721 10.12363881 -5.30128602 12.2111301 -9 15 C-8.67 15 -8.34 15 -8 15 C-6.33333333 15 -4.66666667 15 -3 15 C-3.53625 15.226875 -4.0725 15.45375 -4.625 15.6875 C-7.78500863 17.43382056 -10.2676983 19.6402849 -13 22 C-12.02363939 15.70789829 -10.71528179 13.32338892 -5.68359375 9.515625 C-2.9821533 7.08370181 -2.19593046 4.38846963 -1 1 C-0.67 0.67 -0.34 0.34 0 0 Z " fill="#151D24" transform="translate(88,43)"/>
<path d="M0 0 C2.3125 -0.25 2.3125 -0.25 5 0 C6.8125 2 6.8125 2 8 4 C7.01 4 6.02 4 5 4 C11.435 12.415 11.435 12.415 18 21 C17.67 21.66 17.34 22.32 17 23 C0 2.65509259 0 2.65509259 0 0 Z " fill="#01B3EF" transform="translate(213,29)"/>
<path d="M0 0 C7.42329747 -0.11479326 14.62483754 0.13233383 22 1 C21.67 4.3 21.34 7.6 21 11 C20.67 11 20.34 11 20 11 C20 8.36 20 5.72 20 3 C18.33710938 2.92652344 18.33710938 2.92652344 16.640625 2.8515625 C15.17705935 2.77650785 13.71351888 2.70096119 12.25 2.625 C11.52039063 2.5940625 10.79078125 2.563125 10.0390625 2.53125 C6.26057344 2.3251506 3.22053332 2.08487157 0 0 Z " fill="#091722" transform="translate(122,154)"/>
<path d="M0 0 C2.49571585 3.74357377 2.44684588 7.66043907 2 12 C1 15 1 15 0 17 C-2 15 -2 15 -2.265625 12.79296875 C-2.21379833 4.15087187 -2.21379833 4.15087187 0 0 Z " fill="#DFCC00" transform="translate(163,69)"/>
<path d="M0 0 C0.91058531 3.07322544 1.08886184 5.80097361 1 9 C1.66 7.02 2.32 5.04 3 3 C3.66 3 4.32 3 5 3 C5 4.65 5 6.3 5 8 C4.34 8 3.68 8 3 8 C2.731875 8.61875 2.46375 9.2375 2.1875 9.875 C1 12 1 12 -2 14 C-1.85970581 11.8537974 -1.71261836 9.70803782 -1.5625 7.5625 C-1.48128906 6.36753906 -1.40007812 5.17257813 -1.31640625 3.94140625 C-1 1 -1 1 0 0 Z " fill="#1F2216" transform="translate(84,215)"/>
<path d="M0 0 C0.66 0 1.32 0 2 0 C2 0.99 2 1.98 2 3 C2.99 2.67 3.98 2.34 5 2 C4.42365861 6.75481646 2.44931479 9.97048212 0 14 C-0.33 14 -0.66 14 -1 14 C-0.67 9.38 -0.34 4.76 0 0 Z " fill="#DFCC00" transform="translate(121,64)"/>
<path d="M0 0 C0.33 0.99 0.66 1.98 1 3 C0.16855469 3.45439453 0.16855469 3.45439453 -0.6796875 3.91796875 C-5.37223874 6.55880713 -5.37223874 6.55880713 -8.5 10.8125 C-8.665 11.534375 -8.83 12.25625 -9 13 C-10.125 9.25 -10.125 9.25 -9 7 C-9.66 6.67 -10.32 6.34 -11 6 C-7.37 4.02 -3.74 2.04 0 0 Z " fill="#01B4F2" transform="translate(94,37)"/>
<path d="M0 0 C0.61875 0.165 1.2375 0.33 1.875 0.5 C7.55904854 1.40944777 13.43665716 1.61889422 19 0 C18 3 18 3 16 4 C10.81100563 4.39491462 5.62489663 4.68542385 1 2 C0.67 1.34 0.34 0.68 0 0 Z " fill="#050D0D" transform="translate(118,237)"/>
<path d="M0 0 C0.66 0.33 1.32 0.66 2 1 C-1.11812941 2.70043413 -4.24550253 4.38309295 -7.375 6.0625 C-8.70917969 6.79049805 -8.70917969 6.79049805 -10.0703125 7.53320312 C-11.34648438 8.21479492 -11.34648438 8.21479492 -12.6484375 8.91015625 C-13.43395996 9.33433838 -14.21948242 9.75852051 -15.02880859 10.19555664 C-16.00454834 10.5937561 -16.00454834 10.5937561 -17 11 C-17.66 10.67 -18.32 10.34 -19 10 C-13.375 5 -13.375 5 -10 5 C-7.3651682 3.76585674 -4.83515579 2.38204477 -2.27734375 0.99609375 C-1.52582031 0.66738281 -0.77429688 0.33867188 0 0 Z " fill="#13161E" transform="translate(87,39)"/>
<path d="M0 0 C0.66 0.33 1.32 0.66 2 1 C-0.31 3.31 -2.62 5.62 -5 8 C-4.34 8.66 -3.68 9.32 -3 10 C-4.75 11.5625 -4.75 11.5625 -7 13 C-8.32 12.67 -9.64 12.34 -11 12 C-7.37 8.04 -3.74 4.08 0 0 Z " fill="#DFD200" transform="translate(210,205)"/>
<path d="M0 0 C4.17443363 3.50074982 8.3145494 6.97950843 12 11 C12 11.66 12 12.32 12 13 C10.35 12.67 8.7 12.34 7 12 C6.84724609 11.10667969 6.84724609 11.10667969 6.69140625 10.1953125 C5.88575737 7.63726351 4.90952492 6.65588303 2.9375 4.875 C1.27734375 3.3671875 1.27734375 3.3671875 0 2 C0 1.34 0 0.68 0 0 Z " fill="#F5EA00" transform="translate(88,205)"/>
<path d="M0 0 C0.33 0 0.66 0 1 0 C1.63019694 10.15317287 1.63019694 10.15317287 -1 13.6875 C-1.66 14.120625 -2.32 14.55375 -3 15 C-3.42589023 9.46342706 -1.905247 5.10334017 0 0 Z " fill="#F9EC00" transform="translate(137,71)"/>
<path d="M0 0 C0.99 0.33 1.98 0.66 3 1 C2.39671875 1.39832031 1.7934375 1.79664063 1.171875 2.20703125 C0.37265625 2.73683594 -0.4265625 3.26664062 -1.25 3.8125 C-2.03890625 4.33457031 -2.8278125 4.85664063 -3.640625 5.39453125 C-5.81092481 6.87134122 -7.91413768 8.40689873 -10 10 C-10.66 9.34 -11.32 8.68 -12 8 C-10.37615858 6.85252535 -8.75088944 5.7070709 -7.125 4.5625 C-6.22007812 3.92441406 -5.31515625 3.28632813 -4.3828125 2.62890625 C-2 1 -2 1 0 0 Z " fill="#12140B" transform="translate(161,260)"/>
<path d="M0 0 C0.66 0.33 1.32 0.66 2 1 C-6.261959 7.51936219 -6.261959 7.51936219 -11 9 C-9.56284053 5.35242679 -7.92288356 4.02674425 -4.5 2.1875 C-3.7059375 1.74792969 -2.911875 1.30835938 -2.09375 0.85546875 C-1.4028125 0.57316406 -0.711875 0.29085937 0 0 Z " fill="#081413" transform="translate(194,245)"/>
<path d="M0 0 C2.93015334 0.6452922 5.48756475 1.5680895 8.1875 2.875 C9.22970703 3.36613281 9.22970703 3.36613281 10.29296875 3.8671875 C12 5 12 5 13 8 C7.73691968 6.58795406 4.2437012 4.31008693 0 1 C0 0.67 0 0.34 0 0 Z " fill="#1A1D0B" transform="translate(106,231)"/>
<path d="M0 0 C2 1 2 1 2.8515625 3.28515625 C3.10679687 4.20167969 3.36203125 5.11820313 3.625 6.0625 C3.88539063 6.98160156 4.14578125 7.90070312 4.4140625 8.84765625 C4.60742188 9.55792969 4.80078125 10.26820312 5 11 C3 11 3 11 0.8125 8.875 C-1 6 -1 6 -0.75 2.6875 C-0.5025 1.800625 -0.255 0.91375 0 0 Z " fill="#DFD101" transform="translate(198,55)"/>
<path d="M0 0 C0.66 0 1.32 0 2 0 C2.66 4.29 3.32 8.58 4 13 C3.01 13.495 3.01 13.495 2 14 C0.09391902 10.78817851 -0.22266247 8.46117397 -0.125 4.75 C-0.09792969 3.41195312 -0.09792969 3.41195312 -0.0703125 2.046875 C-0.04710937 1.37140625 -0.02390625 0.6959375 0 0 Z " fill="#1F2922" transform="translate(136,118)"/>
<path d="M0 0 C1.125 1.75 1.125 1.75 2 4 C0.91125562 7.87109113 -1.85796118 9.6848135 -5 12 C-3.68938409 7.76570244 -2.05643741 3.92592596 0 0 Z " fill="#DDCD02" transform="translate(99,54)"/>
<path d="M0 0 C1.77111844 0.47811177 3.54188483 0.9575278 5.3125 1.4375 C6.29863281 1.70433594 7.28476563 1.97117188 8.30078125 2.24609375 C10.21517526 2.78079425 12.11433615 3.37144538 14 4 C14 4.66 14 5.32 14 6 C11.36 5.34 8.72 4.68 6 4 C5.01 5.485 5.01 5.485 4 7 C4 5.68 4 4.36 4 3 C2.68 2.34 1.36 1.68 0 1 C0 0.67 0 0.34 0 0 Z " fill="#2B2515" transform="translate(118,51)"/>
<path d="M0 0 C4.75 0.875 4.75 0.875 7 2 C7.59355614 4.64860427 7.74209269 7.29197322 8 10 C7.4225 9.2575 6.845 8.515 6.25 7.75 C4.08291977 5.00829198 4.08291977 5.00829198 1.75 2.75 C1.1725 2.1725 0.595 1.595 0 1 C0 0.67 0 0.34 0 0 Z " fill="#0D3148" transform="translate(203,37)"/>
<path d="M0 0 C0.66 0.33 1.32 0.66 2 1 C1.34 1.66 0.68 2.32 0 3 C2.64 3.33 5.28 3.66 8 4 C8 4.33 8 4.66 8 5 C7.40832031 5.03738281 6.81664063 5.07476562 6.20703125 5.11328125 C1.39332549 5.51376901 -2.00841777 6.0385035 -6 9 C-4.68775452 5.06326356 -3.08089673 2.77280706 0 0 Z " fill="#15222F" transform="translate(61,33)"/>
<path d="M0 0 C2.60018816 3.90028225 2.15085514 7.47434569 2 12 C1.34 11.67 0.68 11.34 0 11 C0 8.69 0 6.38 0 4 C-1.32 4.33 -2.64 4.66 -4 5 C-2.68 3.35 -1.36 1.7 0 0 Z " fill="#071820" transform="translate(214,198)"/>
<path d="M0 0 C3.875 1.75 3.875 1.75 5 4 C2.69 4 0.38 4 -2 4 C-2.33 4.99 -2.66 5.98 -3 7 C-3.99 5.02 -4.98 3.04 -6 1 C-3.69 1.66 -1.38 2.32 1 3 C0.67 2.01 0.34 1.02 0 0 Z " fill="#181501" transform="translate(99,215)"/>
<path d="M0 0 C0 0.99 0 1.98 0 3 C-0.33 3.33 -0.66 3.66 -1 4 C-1.25005386 6.95817107 -1.25005386 6.95817107 -1 10 C0.95216435 11.95216435 2.53199953 12.84826645 5 14 C2.125 14.1875 2.125 14.1875 -1 14 C-3.51756835 10.22364747 -3.63772451 7.43634442 -3 3 C-1.5 1 -1.5 1 0 0 Z " fill="#0E1012" transform="translate(147,116)"/>
<path d="M0 0 C1.051875 0.7115625 1.051875 0.7115625 2.125 1.4375 C5.16081337 3.08739857 7.59168786 3.60368464 11 4 C8 6 8 6 5 5.875 C1.60674592 4.88530089 0.74042439 3.99739756 -1 1 C-0.67 0.67 -0.34 0.34 0 0 Z " fill="#071212" transform="translate(161,235)"/>
<path d="M0 0 C3 3.75 3 3.75 3 6 C2.01 6.495 2.01 6.495 1 7 C0.34444881 9.52733235 0.34444881 9.52733235 0 12 C-0.66 11.67 -1.32 11.34 -2 11 C-1.40049704 7.31733897 -0.75241109 3.65456815 0 0 Z " fill="#019DD7" transform="translate(167,61)"/>
<path d="M0 0 C4.2295083 1.4098361 5.08210924 4.16421847 7 8 C1.125 6.125 1.125 6.125 0 5 C-0.04063832 3.33382885 -0.042721 1.66611905 0 0 Z " fill="#E6D402" transform="translate(233,32)"/>
<path d="M0 0 C0.99 0.33 1.98 0.66 3 1 C2.01 2.485 2.01 2.485 1 4 C1 4.99 1 5.98 1 7 C1.66 7.66 2.32 8.32 3 9 C-0.875 8.125 -0.875 8.125 -2 7 C-2.1875 4.5625 -2.1875 4.5625 -2 2 C-1.34 1.34 -0.68 0.68 0 0 Z " fill="#DCCD04" transform="translate(196,145)"/>
<path d="M0 0 C1.65 0.33 3.3 0.66 5 1 C0.25 5.875 0.25 5.875 -2 7 C-1.125 2.25 -1.125 2.25 0 0 Z " fill="#E0D202" transform="translate(106,71)"/>
<path d="M0 0 C0.99 0.33 1.98 0.66 3 1 C3 1.99 3 2.98 3 4 C0.36 4.99 -2.28 5.98 -5 7 C-3.70700306 4.11562221 -2.34058637 2.12780579 0 0 Z " fill="#E9D601" transform="translate(83,53)"/>
<path d="M0 0 C0.66 0.33 1.32 0.66 2 1 C-3.14285714 7.57142857 -3.14285714 7.57142857 -7 9 C-5.44499019 5.18315774 -2.96404505 2.80804268 0 0 Z " fill="#181400" transform="translate(201,222)"/>
<path d="M0 0 C0.33 1.98 0.66 3.96 1 6 C0.34 6 -0.32 6 -1 6 C-1 5.01 -1 4.02 -1 3 C-1.598125 3.350625 -2.19625 3.70125 -2.8125 4.0625 C-5 5 -5 5 -8 4 C-2.25 0 -2.25 0 0 0 Z " fill="#DCCC01" transform="translate(196,44)"/>
<path d="M0 0 C2 3 2 3 1.75 6.125 C1.5025 7.07375 1.255 8.0225 1 9 C0.01 9.495 0.01 9.495 -1 10 C-0.67 6.7 -0.34 3.4 0 0 Z " fill="#F0E500" transform="translate(85,215)"/>
<path d="M0 0 C1.875 0.125 1.875 0.125 4 1 C5.25 4.0625 5.25 4.0625 6 7 C1.125 3.375 1.125 3.375 0 0 Z " fill="#222723" transform="translate(201,66)"/>
<path d="M0 0 C0.99 0.33 1.98 0.66 3 1 C3 1.66 3 2.32 3 3 C-0.465 4.485 -0.465 4.485 -4 6 C-4 5.34 -4 4.68 -4 4 C-3.34 4 -2.68 4 -2 4 C-1.34 2.68 -0.68 1.36 0 0 Z " fill="#D5C501" transform="translate(78,40)"/>
<path d="M0 0 C0.33 0.99 0.66 1.98 1 3 C-0.98 3.99 -2.96 4.98 -5 6 C-4.75 4.125 -4.75 4.125 -4 2 C-1.9375 0.75 -1.9375 0.75 0 0 Z " fill="#01ACE5" transform="translate(94,37)"/>
</svg>
